# Blender 5.1.1
# www.blender.org
mtllib colt.mtl
o SM_Colt1911
v 0.014873 0.011668 0.121269
v 0.014873 0.011668 0.121269
v -0.014873 0.011668 0.121269
v -0.014873 0.011668 0.121269
v -0.014873 0.011668 0.190602
v -0.014873 0.011668 0.190602
v -0.014873 0.011668 0.190602
v 0.014873 0.011668 0.190602
v 0.014873 0.011668 0.190602
v 0.014873 0.011668 0.190602
v 0.014873 -0.003195 0.121269
v 0.014873 -0.003195 0.121269
v 0.009141 -0.008452 0.121269
v 0.009141 -0.008452 0.121269
v 0.013194 -0.006913 0.121269
v 0.013194 -0.006913 0.121269
v -0.009141 -0.008452 0.121269
v -0.009141 -0.008452 0.121269
v -0.014873 -0.003195 0.121269
v -0.014873 -0.003195 0.121269
v -0.013194 -0.006913 0.121269
v -0.013194 -0.006913 0.121269
v -0.009141 -0.008452 0.185345
v -0.009141 -0.008452 0.185345
v -0.009141 -0.008452 0.185345
v -0.014873 -0.003195 0.190602
v -0.014873 -0.003195 0.190602
v -0.014873 -0.003195 0.190602
v -0.014873 -0.003195 0.190602
v -0.013194 -0.006913 0.189062
v -0.013194 -0.006913 0.189062
v -0.013194 -0.006913 0.189062
v -0.013194 -0.006913 0.189062
v 0.009141 -0.008452 0.185345
v 0.009141 -0.008452 0.185345
v 0.009141 -0.008452 0.185345
v 0.014873 -0.003195 0.190602
v 0.014873 -0.003195 0.190602
v 0.014873 -0.003195 0.190602
v 0.014873 -0.003195 0.190602
v 0.013194 -0.006913 0.189062
v 0.013194 -0.006913 0.189062
v 0.013194 -0.006913 0.189062
v 0.013194 -0.006913 0.189062
v -0.015947 -0.157490 -0.171178
v -0.015947 -0.157490 -0.171178
v -0.015947 -0.157490 -0.171178
v -0.015947 -0.092377 -0.143363
v -0.015947 -0.092377 -0.143363
v -0.015947 -0.092377 -0.143363
v 0.015947 -0.157490 -0.171178
v 0.015947 -0.157490 -0.171178
v 0.015947 -0.157490 -0.171178
v 0.015947 -0.092377 -0.143363
v 0.015947 -0.092377 -0.143363
v 0.015947 -0.092377 -0.143363
v -0.015947 -0.172589 -0.075866
v -0.015947 -0.172589 -0.075866
v -0.015947 -0.172589 -0.075866
v -0.015947 -0.092377 -0.055602
v -0.015947 -0.092377 -0.055602
v -0.015947 -0.092377 -0.055602
v 0.015947 -0.172589 -0.075866
v 0.015947 -0.172589 -0.075866
v 0.015947 -0.172589 -0.075866
v 0.015947 -0.092377 -0.055602
v 0.015947 -0.092377 -0.055602
v 0.015947 -0.092377 -0.055602
v -0.015947 -0.037941 -0.125085
v -0.015947 -0.037941 -0.125085
v -0.015947 -0.037941 -0.125085
v 0.015947 -0.037941 -0.125085
v 0.015947 -0.037941 -0.125085
v 0.015947 -0.037941 -0.125085
v -0.015947 -0.037941 -0.036131
v -0.015947 -0.037941 -0.036131
v -0.015947 -0.037941 -0.036131
v 0.015947 -0.037941 -0.036131
v 0.015947 -0.037941 -0.036131
v 0.015947 -0.037941 -0.036131
v -0.015947 -0.011337 -0.160052
v -0.015947 -0.011337 -0.160052
v -0.015947 -0.011337 -0.160052
v 0.015947 -0.011337 -0.160052
v 0.015947 -0.011337 -0.160052
v 0.015947 -0.011337 -0.160052
v -0.015947 0.011331 -0.125085
v -0.015947 0.011331 -0.125085
v -0.015947 0.011331 -0.125085
v 0.015947 0.011331 -0.125085
v 0.015947 0.011331 -0.125085
v 0.015947 0.011331 -0.125085
v -0.015947 0.011331 -0.018648
v -0.015947 0.011331 -0.018648
v 0.015947 0.011331 -0.018648
v 0.015947 0.011331 -0.018648
v -0.015947 0.011331 0.121269
v -0.015947 0.011331 0.121269
v -0.015947 0.011331 0.121269
v 0.015947 0.011331 0.121269
v 0.015947 0.011331 0.121269
v 0.015947 0.011331 0.121269
v -0.015947 -0.016859 -0.018648
v -0.015947 -0.016859 -0.018648
v -0.015947 -0.016859 -0.018648
v -0.015947 -0.016859 -0.018648
v -0.015947 -0.016859 -0.018648
v -0.015947 -0.018647 -0.138794
v -0.015947 -0.018647 -0.138794
v -0.015947 -0.018647 -0.138794
v 0.015947 -0.018647 -0.138794
v 0.015947 -0.018647 -0.138794
v 0.015947 -0.018647 -0.138794
v 0.015947 -0.016859 -0.018648
v 0.015947 -0.016859 -0.018648
v 0.015947 -0.016859 -0.018648
v 0.015947 -0.016859 -0.018648
v -0.008573 -0.062078 -0.048280
v -0.008573 -0.062078 -0.048280
v -0.008573 -0.035373 -0.040615
v -0.008573 -0.035373 -0.040615
v 0.008573 -0.062078 -0.048280
v 0.008573 -0.062078 -0.048280
v 0.008573 -0.035373 -0.040615
v 0.008573 -0.035373 -0.040615
v -0.008573 -0.060545 -0.013144
v -0.008573 -0.060545 -0.013144
v -0.008573 -0.060545 -0.013144
v -0.008573 -0.056068 -0.013144
v -0.008573 -0.056068 -0.013144
v -0.008573 -0.056068 -0.013144
v 0.008573 -0.060545 -0.013144
v 0.008573 -0.060545 -0.013144
v 0.008573 -0.060545 -0.013144
v 0.008573 -0.056068 -0.013144
v 0.008573 -0.056068 -0.013144
v 0.008573 -0.056068 -0.013144
v -0.008573 -0.060545 0.017324
v -0.008573 -0.060545 0.017324
v -0.008573 -0.060545 0.017324
v -0.008573 -0.056068 0.017324
v -0.008573 -0.056068 0.017324
v -0.008573 -0.056068 0.017324
v 0.008573 -0.060545 0.017324
v 0.008573 -0.060545 0.017324
v 0.008573 -0.060545 0.017324
v 0.008573 -0.056068 0.017324
v 0.008573 -0.056068 0.017324
v 0.008573 -0.056068 0.017324
v -0.008573 -0.050389 0.032825
v -0.008573 -0.050389 0.032825
v -0.008573 -0.050389 0.032825
v -0.008573 -0.046679 0.027268
v -0.008573 -0.046679 0.027268
v -0.008573 -0.046679 0.027268
v 0.008573 -0.050389 0.032825
v 0.008573 -0.050389 0.032825
v 0.008573 -0.050389 0.032825
v 0.008573 -0.046679 0.027268
v 0.008573 -0.046679 0.027268
v 0.008573 -0.046679 0.027268
v -0.008573 -0.036525 0.034550
v -0.008573 -0.036525 0.034550
v -0.008573 -0.036525 0.034550
v -0.008573 -0.036525 0.030334
v -0.008573 -0.036525 0.030334
v -0.008573 -0.036525 0.030334
v 0.008573 -0.036525 0.034550
v 0.008573 -0.036525 0.034550
v 0.008573 -0.036525 0.034550
v 0.008573 -0.036525 0.030334
v 0.008573 -0.036525 0.030334
v 0.008573 -0.036525 0.030334
v -0.008573 -0.022153 0.037899
v -0.008573 -0.022153 0.037899
v -0.008573 -0.022153 0.037899
v -0.008573 -0.022153 0.026984
v -0.008573 -0.022153 0.026984
v -0.008573 -0.022153 0.026984
v 0.008573 -0.022153 0.037899
v 0.008573 -0.022153 0.037899
v 0.008573 -0.022153 0.037899
v 0.008573 -0.022153 0.026984
v 0.008573 -0.022153 0.026984
v 0.008573 -0.022153 0.026984
v -0.008573 -0.010464 0.057090
v -0.008573 -0.010464 0.057090
v -0.008573 -0.010464 0.009922
v 0.008573 -0.010464 0.057090
v 0.008573 -0.010464 0.057090
v 0.008573 -0.010464 0.009922
v -0.008573 -0.016309 0.047495
v -0.008573 -0.016309 0.047495
v -0.008573 -0.016309 0.017309
v -0.008573 -0.016309 0.017309
v -0.008573 -0.016309 0.017309
v 0.008573 -0.016309 0.047495
v 0.008573 -0.016309 0.047495
v 0.008573 -0.016309 0.017309
v 0.008573 -0.016309 0.017309
v 0.008573 -0.016309 0.017309
v -0.008573 -0.010464 -0.039441
v -0.008573 -0.010464 -0.039441
v 0.008573 -0.010464 -0.039441
v 0.008573 -0.010464 -0.039441
v -0.008573 -0.016309 -0.039441
v -0.008573 -0.016309 -0.039441
v -0.008573 -0.016309 -0.039441
v 0.008573 -0.016309 -0.039441
v 0.008573 -0.016309 -0.039441
v 0.008573 -0.016309 -0.039441
v -0.004341 -0.051709 -0.039441
v -0.004341 -0.051709 -0.039441
v -0.004341 -0.051709 -0.039441
v -0.004341 -0.010152 -0.039441
v -0.004341 -0.010152 -0.039441
v -0.004341 -0.010152 -0.039441
v 0.004341 -0.051709 -0.039441
v 0.004341 -0.051709 -0.039441
v 0.004341 -0.051709 -0.039441
v 0.004341 -0.010152 -0.039441
v 0.004341 -0.010152 -0.039441
v 0.004341 -0.010152 -0.039441
v -0.004341 -0.054004 -0.003226
v -0.004341 -0.054004 -0.003226
v -0.004341 -0.054004 -0.003226
v -0.004341 -0.017343 -0.003226
v -0.004341 -0.017343 -0.003226
v -0.004341 -0.017343 -0.003226
v 0.004341 -0.054004 -0.003226
v 0.004341 -0.054004 -0.003226
v 0.004341 -0.054004 -0.003226
v 0.004341 -0.017343 -0.003226
v 0.004341 -0.017343 -0.003226
v 0.004341 -0.017343 -0.003226
v -0.004341 -0.033428 -0.039441
v -0.004341 -0.033428 -0.039441
v 0.004341 -0.033428 -0.039441
v 0.004341 -0.033428 -0.039441
v 0.004341 -0.033981 -0.012009
v 0.004341 -0.033981 -0.012009
v 0.004341 -0.033981 -0.012009
v -0.004341 -0.033981 -0.012009
v -0.004341 -0.033981 -0.012009
v -0.004341 -0.033981 -0.012009
v -0.006497 0.010301 -0.142609
v -0.006497 0.010301 -0.142609
v -0.006497 0.010301 -0.142609
v -0.006497 0.024427 -0.142609
v -0.006497 0.024427 -0.142609
v -0.006497 0.024427 -0.142609
v 0.006497 0.010301 -0.142609
v 0.006497 0.010301 -0.142609
v 0.006497 0.010301 -0.142609
v 0.006497 0.024427 -0.142609
v 0.006497 0.024427 -0.142609
v 0.006497 0.024427 -0.142609
v -0.006497 0.003491 -0.109742
v -0.006497 0.003491 -0.109742
v -0.006497 0.003491 -0.109742
v -0.006497 0.013891 -0.109742
v -0.006497 0.013891 -0.109742
v -0.006497 0.013891 -0.109742
v 0.006497 0.003491 -0.109742
v 0.006497 0.003491 -0.109742
v 0.006497 0.003491 -0.109742
v 0.006497 0.013891 -0.109742
v 0.006497 0.013891 -0.109742
v 0.006497 0.013891 -0.109742
v -0.006497 0.010301 -0.153654
v -0.006497 0.010301 -0.153654
v -0.006497 0.010301 -0.153654
v -0.006497 0.029750 -0.153654
v -0.006497 0.029750 -0.153654
v -0.006497 0.029750 -0.153654
v 0.006497 0.010301 -0.153654
v 0.006497 0.010301 -0.153654
v 0.006497 0.010301 -0.153654
v 0.006497 0.029750 -0.153654
v 0.006497 0.029750 -0.153654
v 0.006497 0.029750 -0.153654
v -0.006497 0.000986 -0.165497
v -0.006497 0.000986 -0.165497
v -0.006497 0.000986 -0.165497
v -0.006497 0.011653 -0.165497
v -0.006497 0.011653 -0.165497
v -0.006497 0.011653 -0.165497
v 0.006497 0.000986 -0.165497
v 0.006497 0.000986 -0.165497
v 0.006497 0.000986 -0.165497
v 0.006497 0.011653 -0.165497
v 0.006497 0.011653 -0.165497
v 0.006497 0.011653 -0.165497
v -0.006497 -0.002114 -0.168127
v -0.006497 -0.002114 -0.168127
v -0.006497 -0.002114 -0.168127
v -0.006497 0.004467 -0.172417
v -0.006497 0.004467 -0.172417
v -0.006497 0.004467 -0.172417
v 0.006497 -0.002114 -0.168127
v 0.006497 -0.002114 -0.168127
v 0.006497 -0.002114 -0.168127
v 0.006497 0.004467 -0.172417
v 0.006497 0.004467 -0.172417
v 0.006497 0.004467 -0.172417
v -0.010351 0.053033 -0.099651
v -0.010351 0.053033 -0.099651
v -0.010351 0.053033 -0.099651
v -0.010351 0.060648 -0.099651
v -0.010351 0.060648 -0.099651
v -0.010351 0.060648 -0.099651
v 0.010351 0.053033 -0.099651
v 0.010351 0.053033 -0.099651
v 0.010351 0.053033 -0.099651
v 0.010351 0.060648 -0.099651
v 0.010351 0.060648 -0.099651
v 0.010351 0.060648 -0.099651
v -0.010351 0.053033 -0.091210
v -0.010351 0.053033 -0.091210
v -0.010351 0.053033 -0.091210
v -0.010351 0.060648 -0.091210
v -0.010351 0.060648 -0.091210
v -0.010351 0.060648 -0.091210
v 0.010351 0.053033 -0.091210
v 0.010351 0.053033 -0.091210
v 0.010351 0.053033 -0.091210
v 0.010351 0.060648 -0.091210
v 0.010351 0.060648 -0.091210
v 0.010351 0.060648 -0.091210
v 0.003450 0.053033 -0.099651
v 0.003450 0.053033 -0.099651
v -0.003450 0.053033 -0.099651
v -0.003450 0.053033 -0.099651
v -0.003450 0.060648 -0.099651
v -0.003450 0.060648 -0.099651
v -0.003450 0.060648 -0.099651
v 0.003450 0.060648 -0.099651
v 0.003450 0.060648 -0.099651
v 0.003450 0.060648 -0.099651
v -0.003450 0.053033 -0.091210
v -0.003450 0.053033 -0.091210
v 0.003450 0.053033 -0.091210
v 0.003450 0.053033 -0.091210
v 0.003450 0.060648 -0.091210
v 0.003450 0.060648 -0.091210
v 0.003450 0.060648 -0.091210
v -0.003450 0.060648 -0.091210
v -0.003450 0.060648 -0.091210
v -0.003450 0.060648 -0.091210
v -0.010351 0.056840 -0.099651
v -0.010351 0.056840 -0.099651
v 0.010351 0.056840 -0.099651
v 0.010351 0.056840 -0.099651
v 0.010351 0.056840 -0.091210
v 0.010351 0.056840 -0.091210
v -0.010351 0.056840 -0.091210
v -0.010351 0.056840 -0.091210
v 0.003450 0.056840 -0.091210
v 0.003450 0.056840 -0.091210
v 0.003450 0.056840 -0.091210
v -0.003450 0.056840 -0.091210
v -0.003450 0.056840 -0.091210
v -0.003450 0.056840 -0.091210
v -0.003450 0.056840 -0.099651
v -0.003450 0.056840 -0.099651
v -0.003450 0.056840 -0.099651
v 0.003450 0.056840 -0.099651
v 0.003450 0.056840 -0.099651
v 0.003450 0.056840 -0.099651
v -0.016768 0.011668 -0.126867
v -0.016768 0.011668 -0.126867
v -0.016768 0.011668 -0.126867
v 0.016768 0.011668 -0.126867
v 0.016768 0.011668 -0.126867
v 0.016768 0.011668 -0.126867
v -0.016768 0.011668 0.197769
v -0.016768 0.011668 0.197769
v -0.016768 0.011668 0.197769
v -0.011211 0.053033 -0.111510
v -0.011211 0.053033 -0.111510
v -0.011211 0.053033 -0.111510
v -0.016768 0.046986 -0.118951
v -0.016768 0.046986 -0.118951
v -0.016768 0.046986 -0.118951
v -0.016768 0.046986 -0.118951
v 0.011211 0.053033 -0.111510
v 0.011211 0.053033 -0.111510
v 0.011211 0.053033 -0.111510
v 0.016768 0.046986 -0.118951
v 0.016768 0.046986 -0.118951
v 0.016768 0.046986 -0.118951
v 0.016768 0.046986 -0.118951
v -0.011211 0.053033 0.191683
v -0.011211 0.053033 0.191683
v -0.011211 0.053033 0.191683
v -0.016768 0.046984 0.197769
v -0.016768 0.046984 0.197769
v -0.016768 0.046984 0.197769
v -0.016768 0.046984 0.197769
v 0.011211 0.053033 0.191683
v 0.011211 0.053033 0.191683
v 0.011211 0.053033 0.191683
v 0.011211 0.053033 0.191683
v 0.016768 0.046984 0.197769
v 0.016768 0.046984 0.197769
v 0.016768 0.046984 0.197769
v 0.016768 0.046984 0.197769
v 0.016768 0.011668 0.121269
v 0.016768 0.011668 0.121269
v 0.016768 0.011668 0.121269
v -0.016768 0.011668 0.121269
v -0.016768 0.011668 0.121269
v -0.016768 0.011668 0.121269
v 0.011211 0.053033 0.121269
v 0.011211 0.053033 0.121269
v 0.011211 0.053033 0.121269
v 0.016768 0.046984 0.121269
v 0.016768 0.046984 0.121269
v 0.016768 0.046984 0.121269
v -0.011211 0.053033 0.121269
v -0.011211 0.053033 0.121269
v -0.011211 0.053033 0.121269
v -0.016768 0.046984 0.121269
v -0.016768 0.046984 0.121269
v -0.016768 0.046984 0.121269
v 0.016768 0.011668 0.197769
v 0.016768 0.011668 0.197769
v 0.016768 0.011668 0.197769
v -0.016768 0.011668 0.190602
v -0.016768 0.011668 0.190602
v -0.016768 0.011668 0.190602
v -0.016768 0.046984 0.190602
v -0.016768 0.046984 0.190602
v 0.016768 0.011668 0.190602
v 0.016768 0.011668 0.190602
v 0.016768 0.011668 0.190602
v 0.016768 0.046984 0.190602
v 0.016768 0.046984 0.190602
v -0.002617 0.053033 0.171272
v -0.002617 0.053033 0.171272
v -0.002617 0.053033 0.171272
v -0.002617 0.056934 0.171272
v -0.002617 0.056934 0.171272
v -0.002617 0.056934 0.171272
v 0.002617 0.053033 0.171272
v 0.002617 0.053033 0.171272
v 0.002617 0.053033 0.171272
v 0.002617 0.056934 0.171272
v 0.002617 0.056934 0.171272
v 0.002617 0.056934 0.171272
v -0.002617 0.053033 0.186449
v -0.002617 0.053033 0.186449
v -0.002617 0.053033 0.186449
v -0.002617 0.056934 0.186449
v -0.002617 0.056934 0.186449
v -0.002617 0.056934 0.186449
v 0.002617 0.053033 0.186449
v 0.002617 0.053033 0.186449
v 0.002617 0.053033 0.186449
v 0.002617 0.056934 0.186449
v 0.002617 0.056934 0.186449
v 0.002617 0.056934 0.186449
v 0.002617 0.053033 0.178861
v 0.002617 0.053033 0.178861
v 0.002617 0.060648 0.178861
v 0.002617 0.060648 0.178861
v 0.002617 0.060648 0.178861
v -0.002617 0.053033 0.178861
v -0.002617 0.053033 0.178861
v -0.002617 0.060648 0.178861
v -0.002617 0.060648 0.178861
v -0.002617 0.060648 0.178861
v -0.006235 -0.011337 -0.018648
v -0.006235 -0.011337 -0.018648
v -0.006235 -0.011337 -0.018648
v -0.006235 -0.011337 -0.018648
v -0.015947 -0.002428 -0.018648
v -0.015947 -0.002428 -0.018648
v -0.015947 -0.002428 -0.018648
v -0.015947 -0.011337 -0.027557
v -0.015947 -0.011337 -0.027557
v -0.015947 -0.011337 -0.027557
v -0.013102 -0.008727 -0.018648
v -0.013102 -0.008727 -0.018648
v -0.013102 -0.008727 -0.018648
v -0.013102 -0.008727 -0.018648
v 0.015947 -0.002428 -0.018648
v 0.015947 -0.002428 -0.018648
v 0.015947 -0.002428 -0.018648
v 0.006235 -0.011337 -0.018648
v 0.006235 -0.011337 -0.018648
v 0.006235 -0.011337 -0.018648
v 0.006235 -0.011337 -0.018648
v 0.015947 -0.011337 -0.027557
v 0.015947 -0.011337 -0.027557
v 0.015947 -0.011337 -0.027557
v 0.013102 -0.008727 -0.018648
v 0.013102 -0.008727 -0.018648
v 0.013102 -0.008727 -0.018648
v 0.013102 -0.008727 -0.018648
v -0.015947 -0.002428 0.121269
v -0.015947 -0.002428 0.121269
v -0.015947 -0.002428 0.121269
v -0.006235 -0.011337 0.121269
v -0.006235 -0.011337 0.121269
v -0.006235 -0.011337 0.121269
v -0.013102 -0.008727 0.121269
v -0.013102 -0.008727 0.121269
v -0.013102 -0.008727 0.121269
v 0.006235 -0.011337 0.121269
v 0.006235 -0.011337 0.121269
v 0.006235 -0.011337 0.121269
v 0.015947 -0.002428 0.121269
v 0.015947 -0.002428 0.121269
v 0.015947 -0.002428 0.121269
v 0.013102 -0.008727 0.121269
v 0.013102 -0.008727 0.121269
v 0.013102 -0.008727 0.121269
vn -0.0000 -0.0000 1.0000
vn -1.0000 -0.0000 -0.0000
vn 1.0000 -0.0000 -0.0000
vn -0.0000 1.0000 -0.0000
vn 0.3552 -0.9348 -0.0000
vn 0.9114 -0.4116 -0.0000
vn -0.3552 -0.9348 -0.0000
vn -0.9114 -0.4116 -0.0000
vn -0.0000 -0.3827 0.9239
vn -0.0000 -0.9239 0.3827
vn -0.0000 -1.0000 -0.0000
vn -0.0000 0.3928 -0.9196
vn -0.0000 -0.2449 0.9695
vn -0.0000 -0.9877 -0.1565
vn -0.0000 -0.3368 0.9416
vn -0.0000 0.3183 -0.9480
vn -0.0000 -0.9456 -0.3252
vn -0.0000 0.8391 -0.5440
vn -0.0000 -0.5792 -0.8152
vn -0.0000 -0.6384 0.7697
vn -0.0000 -0.9990 0.0436
vn -0.0000 0.7987 0.6017
vn -0.0000 0.7271 -0.6865
vn -0.0000 -0.8365 0.5480
vn -0.0000 -0.2270 -0.9739
vn -0.0000 -0.1234 0.9924
vn -0.0000 0.2891 -0.9573
vn -0.0000 -0.2270 0.9739
vn -0.0000 -0.8541 0.5202
vn -0.0000 -0.8560 -0.5170
vn -0.0000 -0.0000 -1.0000
vn -0.0000 -0.4668 0.8844
vn -0.0000 -0.9980 -0.0633
vn -0.0000 0.9809 0.1948
vn -0.0000 0.4017 0.9158
vn -0.0000 -0.9792 -0.2029
vn -0.0000 0.9523 0.3053
vn -0.0000 0.5476 -0.8368
vn -0.0000 0.9008 0.4341
vn -0.0000 -0.6470 0.7625
vn -0.0000 -0.7860 0.6182
vn -0.0000 -0.5461 -0.8377
vn -0.0000 0.6936 -0.7203
vn -0.0000 0.2187 -0.9758
vn -0.0000 0.7761 -0.6306
vn 0.7364 0.6765 -0.0000
vn -0.0000 0.7092 0.7050
vn -0.7363 0.6767 -0.0000
vn -0.7364 0.6765 -0.0000
vn 0.7363 0.6767 -0.0000
vn -0.0000 0.8982 -0.4396
vn -0.0000 0.8982 0.4396
vn -0.6578 0.2301 0.7172
vn -0.6577 0.2301 0.7172
vn 0.8428 -0.3806 0.3806
vn -0.8428 -0.3806 0.3806
vn 0.6578 0.2301 0.7172
vn 0.6577 0.2301 0.7172
vt 0.221122 0.904325
vt 0.221122 0.858812
vt 0.245915 0.858812
vt 0.245915 0.904325
vt 0.688321 0.811665
vt 0.688321 0.696013
vt 0.713113 0.696013
vt 0.713113 0.811665
vt 0.078160 0.828167
vt 0.078160 0.712515
vt 0.102952 0.712515
vt 0.102952 0.828167
vt 0.510405 0.517178
vt 0.510405 0.632830
vt 0.464893 0.632830
vt 0.464893 0.517178
vt 0.897082 0.541304
vt 0.897082 0.648186
vt 0.890370 0.648186
vt 0.890370 0.535103
vt 0.200122 0.715084
vt 0.200122 0.828167
vt 0.193410 0.828167
vt 0.193411 0.712515
vt 0.897082 0.667760
vt 0.897082 0.774642
vt 0.890370 0.780843
vt 0.890370 0.667760
vt 0.376947 0.770141
vt 0.376947 0.883224
vt 0.370235 0.885793
vt 0.370235 0.770141
vt 0.659206 0.836004
vt 0.659206 0.790491
vt 0.665918 0.793060
vt 0.665918 0.833436
vt 0.573274 0.877187
vt 0.573274 0.836812
vt 0.579985 0.843013
vt 0.579985 0.870986
vt 0.338295 0.674753
vt 0.338295 0.781636
vt 0.310321 0.781636
vt 0.310321 0.674753
vt 0.396520 0.635284
vt 0.396520 0.517178
vt 0.445319 0.517178
vt 0.445319 0.635284
vt 0.291390 0.497604
vt 0.182778 0.451208
vt 0.182778 0.304817
vt 0.316576 0.338620
vt 0.289495 0.655180
vt 0.289495 0.517178
vt 0.338295 0.517178
vt 0.338295 0.655180
vt 0.642939 0.168771
vt 0.509140 0.202574
vt 0.509140 0.056183
vt 0.617752 0.009787
vt 0.269922 0.517178
vt 0.269922 0.678145
vt 0.221122 0.678145
vt 0.221122 0.517178
vt 0.578778 0.738757
vt 0.529979 0.738757
vt 0.529979 0.642320
vt 0.578778 0.642320
vt 0.925867 0.599387
vt 0.925859 0.648186
vt 0.916655 0.633326
vt 0.916655 0.614247
vt 0.445319 0.750643
vt 0.396520 0.750643
vt 0.396520 0.654857
vt 0.445320 0.654857
vt 0.418337 0.235051
vt 0.418337 0.086672
vt 0.091974 0.420719
vt 0.091974 0.272340
vt 0.056809 0.243176
vt 0.059791 0.443586
vt 0.047597 0.479046
vt 0.047597 0.258037
vt 0.145475 0.792464
vt 0.145475 0.841263
vt 0.122525 0.841263
vt 0.122525 0.792464
vt 0.373960 0.028345
vt 0.373960 0.249354
vt 0.359099 0.264215
vt 0.336149 0.086672
vt 0.347819 0.801209
vt 0.347819 0.850009
vt 0.310321 0.850009
vt 0.310321 0.801209
vt 0.868285 0.676655
vt 0.868285 0.854198
vt 0.819485 0.854198
vt 0.819485 0.676655
vt 0.058586 0.782025
vt 0.009787 0.782025
vt 0.009787 0.712515
vt 0.058586 0.712515
vt 0.336149 0.264215
vt 0.359099 0.497604
vt 0.336149 0.497604
vt 0.032736 0.243176
vt 0.009787 0.243176
vt 0.009787 0.009787
vt 0.032737 0.009787
vt 0.819485 0.443265
vt 0.868285 0.443265
vt 0.386154 0.063805
vt 0.383164 0.264215
vt 0.009787 0.420719
vt 0.639633 0.790491
vt 0.639633 0.839291
vt 0.600153 0.839291
vt 0.600153 0.790491
vt 0.266807 0.790440
vt 0.266807 0.839239
vt 0.221122 0.839239
vt 0.221122 0.790440
vt 0.383171 0.264215
vt 0.201549 0.692942
vt 0.157004 0.680157
vt 0.191525 0.634333
vt 0.198992 0.634333
vt 0.686879 0.831238
vt 0.713113 0.831238
vt 0.713113 0.882061
vt 0.686879 0.882061
vt 0.093324 0.575787
vt 0.085857 0.575787
vt 0.051336 0.529963
vt 0.095881 0.517178
vt 0.009787 0.860264
vt 0.009787 0.801599
vt 0.036020 0.801599
vt 0.036020 0.860264
vt 0.732687 0.881205
vt 0.732687 0.823834
vt 0.758920 0.823834
vt 0.758920 0.881205
vt 0.709693 0.901634
vt 0.709693 0.927868
vt 0.686880 0.927868
vt 0.686880 0.901634
vt 0.553700 0.887634
vt 0.527467 0.887634
vt 0.527467 0.836812
vt 0.553700 0.836812
vt 0.191525 0.583511
vt 0.198992 0.583511
vt 0.093324 0.626609
vt 0.085857 0.626609
vt 0.070195 0.643197
vt 0.076383 0.652466
vt 0.053257 0.655343
vt 0.053257 0.648311
vt 0.175863 0.566923
vt 0.182051 0.557654
vt 0.845719 0.904683
vt 0.819485 0.904683
vt 0.819485 0.873771
vt 0.845719 0.873771
vt 0.421135 0.884451
vt 0.421135 0.910685
vt 0.396520 0.910685
vt 0.396520 0.884451
vt 0.755991 0.900779
vt 0.755991 0.927012
vt 0.732687 0.927012
vt 0.732687 0.900779
vt 0.545159 0.907207
vt 0.545159 0.933441
vt 0.527467 0.933441
vt 0.527467 0.907207
vt 0.158925 0.561809
vt 0.158925 0.554777
vt 0.019536 0.626584
vt 0.019536 0.676936
vt 0.009787 0.692942
vt 0.009787 0.614263
vt 0.134952 0.567396
vt 0.134952 0.549190
vt 0.029285 0.660930
vt 0.029285 0.642724
vt 0.914985 0.889308
vt 0.914985 0.915542
vt 0.890370 0.915542
vt 0.890370 0.889308
vt 0.659245 0.877606
vt 0.633011 0.877606
vt 0.633011 0.858864
vt 0.659245 0.858864
vt 0.125203 0.533184
vt 0.125203 0.583536
vt 0.115454 0.595857
vt 0.115455 0.517178
vt 0.376947 0.905366
vt 0.376947 0.931600
vt 0.358091 0.931600
vt 0.358091 0.905366
vt 0.659245 0.896347
vt 0.633011 0.896347
vt 0.865448 0.924256
vt 0.865448 0.950490
vt 0.855699 0.950490
vt 0.855699 0.924256
vt 0.422754 0.864878
vt 0.396520 0.864878
vt 0.396520 0.770216
vt 0.422754 0.770216
vt 0.125203 0.678197
vt 0.115454 0.678197
vt 0.009787 0.531923
vt 0.019536 0.531923
vt 0.890370 0.839242
vt 0.890370 0.800416
vt 0.903655 0.800416
vt 0.903655 0.839242
vt 0.221122 0.736544
vt 0.221122 0.697718
vt 0.281530 0.709713
vt 0.266880 0.737466
vt 0.923228 0.831799
vt 0.923228 0.800416
vt 0.936513 0.800416
vt 0.936513 0.831799
vt 0.614803 0.737518
vt 0.600153 0.709765
vt 0.660561 0.697770
vt 0.660561 0.736596
vt 0.613438 0.858864
vt 0.613438 0.919393
vt 0.600153 0.919393
vt 0.600153 0.858864
vt 0.265488 0.920399
vt 0.265488 0.858812
vt 0.278773 0.858812
vt 0.278773 0.920399
vt 0.600153 0.770918
vt 0.660561 0.767089
vt 0.916655 0.775116
vt 0.916655 0.738645
vt 0.929940 0.738645
vt 0.929940 0.775116
vt 0.221122 0.767037
vt 0.281530 0.770866
vt 0.890370 0.869735
vt 0.903655 0.869735
vt 0.540577 0.570071
vt 0.564034 0.572323
vt 0.562273 0.590662
vt 0.529979 0.587562
vt 0.563311 0.517178
vt 0.580580 0.518835
vt 0.197589 0.943184
vt 0.180240 0.943184
vt 0.180240 0.923302
vt 0.197589 0.923302
vt 0.662512 0.572529
vt 0.679781 0.570871
vt 0.702515 0.623764
vt 0.679058 0.626016
vt 0.200122 0.847741
vt 0.200122 0.903729
vt 0.180240 0.903729
vt 0.180240 0.847741
vt 0.778494 0.881406
vt 0.778494 0.823834
vt 0.798376 0.823834
vt 0.798376 0.881406
vt 0.009787 0.879837
vt 0.029669 0.879837
vt 0.029669 0.915915
vt 0.009787 0.915915
vt 0.713113 0.641255
vt 0.680819 0.644355
vt 0.652893 0.936372
vt 0.633011 0.936372
vt 0.633011 0.915920
vt 0.652893 0.915920
vt 0.916655 0.579813
vt 0.916655 0.559931
vt 0.935079 0.559931
vt 0.935079 0.579813
vt 0.049242 0.899719
vt 0.049242 0.879837
vt 0.056023 0.879837
vt 0.056023 0.899719
vt 0.778494 0.900979
vt 0.798376 0.900979
vt 0.798376 0.926113
vt 0.778494 0.926113
vt 0.575852 0.611812
vt 0.558141 0.610111
vt 0.684951 0.663805
vt 0.667240 0.665505
vt 0.947662 0.954080
vt 0.934559 0.954080
vt 0.934559 0.934198
vt 0.947662 0.934198
vt 0.580580 0.616673
vt 0.568970 0.622746
vt 0.674122 0.676440
vt 0.662512 0.670366
vt 0.819485 0.944139
vt 0.819485 0.924256
vt 0.836125 0.924256
vt 0.836125 0.944139
vt 0.571084 0.917766
vt 0.564732 0.917766
vt 0.564732 0.907207
vt 0.571084 0.907207
vt 0.929580 0.865451
vt 0.923228 0.865451
vt 0.923228 0.851372
vt 0.929580 0.851372
vt 0.083070 0.924216
vt 0.076718 0.924216
vt 0.076718 0.913658
vt 0.083070 0.913658
vt 0.438664 0.944337
vt 0.432313 0.944337
vt 0.432313 0.930258
vt 0.438664 0.930258
vt 0.478971 0.915924
vt 0.464893 0.915924
vt 0.464893 0.905366
vt 0.478971 0.905366
vt 0.900928 0.935115
vt 0.900928 0.949194
vt 0.890370 0.949194
vt 0.890370 0.935115
vt 0.020345 0.935488
vt 0.020345 0.949566
vt 0.009787 0.949566
vt 0.009787 0.935488
vt 0.478971 0.937041
vt 0.464893 0.937041
vt 0.464893 0.926483
vt 0.478971 0.926483
vt 0.083070 0.945333
vt 0.076718 0.945333
vt 0.076718 0.934775
vt 0.083070 0.934775
vt 0.571084 0.938883
vt 0.564732 0.938883
vt 0.564732 0.928324
vt 0.571084 0.928324
vt 0.577436 0.928324
vt 0.577436 0.917766
vt 0.577436 0.938883
vt 0.089422 0.934775
vt 0.089422 0.924216
vt 0.089422 0.945333
vt 0.445016 0.944337
vt 0.445016 0.930258
vt 0.089422 0.913658
vt 0.935932 0.865451
vt 0.935932 0.851372
vt 0.577436 0.907207
vt 0.039918 0.949566
vt 0.039918 0.935488
vt 0.050477 0.935488
vt 0.050477 0.949566
vt 0.344207 0.869582
vt 0.350559 0.869582
vt 0.350559 0.883661
vt 0.344207 0.883661
vt 0.945440 0.647132
vt 0.945440 0.633053
vt 0.951792 0.633053
vt 0.951792 0.647132
vt 0.924678 0.127241
vt 0.924678 0.515529
vt 0.890370 0.515529
vt 0.890370 0.127241
vt 0.527467 0.817238
vt 0.527467 0.758330
vt 0.578778 0.758330
vt 0.578778 0.817238
vt 0.122525 0.772890
vt 0.122525 0.712516
vt 0.173837 0.712516
vt 0.173837 0.772891
vt 0.740999 0.539344
vt 0.799907 0.539344
vt 0.799907 0.551298
vt 0.740999 0.551298
vt 0.122525 0.903646
vt 0.122525 0.869339
vt 0.138518 0.860837
vt 0.138518 0.912148
vt 0.957446 0.527941
vt 0.944251 0.538093
vt 0.944251 0.526139
vt 0.310321 0.912392
vt 0.310321 0.878084
vt 0.324634 0.869582
vt 0.324634 0.920894
vt 0.977020 0.410487
vt 0.977022 0.022199
vt 0.990213 0.009787
vt 0.990213 0.410487
vt 0.662512 0.137393
vt 0.721421 0.137393
vt 0.721425 0.538093
vt 0.662512 0.551298
vt 0.662512 0.021741
vt 0.721420 0.021741
vt 0.977019 0.526139
vt 0.990213 0.526139
vt 0.957442 0.022199
vt 0.957445 0.410487
vt 0.944251 0.410487
vt 0.944251 0.009787
vt 0.740999 0.009787
vt 0.799912 0.022991
vt 0.799908 0.423692
vt 0.740999 0.423692
vt 0.870797 0.009787
vt 0.870797 0.423692
vt 0.819485 0.423692
vt 0.819485 0.009787
vt 0.924678 0.011589
vt 0.890370 0.011589
vt 0.928609 0.719071
vt 0.916655 0.719071
vt 0.916655 0.667760
vt 0.928609 0.667760
vt 0.990213 0.538093
vt 0.662512 0.009787
vt 0.721420 0.009787
vt 0.957446 0.526139
vt 0.271996 0.947982
vt 0.265488 0.947982
vt 0.265488 0.939972
vt 0.271996 0.939972
vt 0.934559 0.901966
vt 0.947262 0.901966
vt 0.941066 0.914624
vt 0.934559 0.914624
vt 0.316828 0.948477
vt 0.310321 0.948477
vt 0.310321 0.940467
vt 0.316828 0.940467
vt 0.221122 0.936556
vt 0.233826 0.936556
vt 0.227630 0.949214
vt 0.221122 0.949214
vt 0.506554 0.918024
vt 0.506554 0.930682
vt 0.498545 0.930682
vt 0.498545 0.918024
vt 0.953450 0.599387
vt 0.953450 0.613480
vt 0.945440 0.613480
vt 0.945440 0.599387
vt 0.600153 0.953060
vt 0.600153 0.938966
vt 0.608163 0.938966
vt 0.608163 0.953060
vt 0.506554 0.905366
vt 0.498545 0.905366
vt 0.221122 0.923898
vt 0.227630 0.923898
vt 0.934559 0.889308
vt 0.941066 0.889308
vt 0.396520 0.936298
vt 0.404137 0.936828
vt 0.397681 0.949029
vt 0.412739 0.949309
vt 0.122525 0.931722
vt 0.131128 0.938292
vt 0.122525 0.950773
vt 0.464893 0.885793
vt 0.464893 0.652403
vt 0.476267 0.652403
vt 0.476267 0.885793
vt 0.775007 0.570871
vt 0.775007 0.804260
vt 0.763634 0.804260
vt 0.763634 0.570871
vt 0.732686 0.804261
vt 0.732687 0.570871
vt 0.744060 0.570871
vt 0.744060 0.804261
vt 0.495840 0.885793
vt 0.495840 0.652403
vt 0.507214 0.652403
vt 0.507214 0.885793
vt 0.357868 0.517178
vt 0.376947 0.517178
vt 0.376947 0.750567
vt 0.357868 0.750567
vt 0.587696 0.355337
vt 0.649962 0.355337
vt 0.649962 0.484068
vt 0.587696 0.484068
vt 0.412739 0.930258
vt 0.137584 0.950492
vt 0.138745 0.937761
vt 0.160336 0.826403
vt 0.155983 0.836911
vt 0.155983 0.796816
vt 0.160336 0.807324
s 0
usemtl M_Colt1911
f 8/1/1 5/2/1 26/3/1
f 8/1/1 26/3/1 37/4/1
f 7/5/2 4/6/2 20/7/2
f 7/5/2 20/7/2 29/8/2
f 2/9/3 10/10/3 40/11/3
f 2/9/3 40/11/3 12/12/3
f 9/13/4 1/14/4 3/15/4
f 9/13/4 3/15/4 6/16/4
f 36/17/5 14/18/5 15/19/5
f 36/17/5 15/19/5 43/20/5
f 44/21/6 16/22/6 11/23/6
f 44/21/6 11/23/6 39/24/6
f 18/25/7 25/26/7 32/27/7
f 18/25/7 32/27/7 21/28/7
f 22/29/8 33/30/8 28/31/8
f 22/29/8 28/31/8 19/32/8
f 38/33/9 27/34/9 30/35/9
f 38/33/9 30/35/9 41/36/9
f 42/37/10 31/38/10 23/39/10
s 1
f 42/37/10 23/39/10 34/40/10
s 0
f 13/41/11 35/42/11 24/43/11
f 13/41/11 24/43/11 17/44/11
f 45/45/12 49/46/12 55/47/12
f 45/45/12 55/47/12 51/48/12
f 53/49/3 56/50/3 68/51/3
f 53/49/3 68/51/3 65/52/3
f 63/53/13 66/54/13 60/55/13
f 63/53/13 60/55/13 57/56/13
f 59/57/2 62/58/2 50/59/2
f 59/57/2 50/59/2 47/60/2
f 52/61/14 64/62/14 58/63/14
f 52/61/14 58/63/14 46/64/14
f 61/65/15 67/66/15 78/67/15
f 61/65/15 78/67/15 75/68/15
f 103/69/1 114/70/1 490/71/1
f 103/69/1 490/71/1 473/72/1
f 54/73/16 48/74/16 69/75/16
f 54/73/16 69/75/16 72/76/16
f 50/59/2 62/58/2 77/77/2
f 50/59/2 77/77/2 71/78/2
f 68/51/3 56/50/3 74/79/3
f 68/51/3 74/79/3 80/80/3
f 117/81/3 113/82/3 86/83/3
f 117/81/3 86/83/3 496/84/3
f 501/85/1 513/86/1 100/87/1
f 501/85/1 100/87/1 97/88/1
f 83/89/2 482/90/2 479/91/2
f 83/89/2 479/91/2 89/92/2
f 112/93/17 109/94/17 82/95/17
f 112/93/17 82/95/17 85/96/17
f 95/97/4 91/98/4 88/99/4
f 95/97/4 88/99/4 93/100/4
f 84/101/18 81/102/18 87/103/18
f 84/101/18 87/103/18 90/104/18
f 94/105/2 479/91/2 503/106/2
f 94/105/2 503/106/2 99/107/2
f 489/108/3 96/109/3 102/110/3
f 489/108/3 102/110/3 515/111/3
f 95/97/4 93/100/4 98/112/4
f 95/97/4 98/112/4 101/113/4
f 110/114/2 106/115/2 482/90/2
f 110/114/2 482/90/2 83/89/2
f 489/108/3 92/116/3 96/109/3
f 73/117/19 70/118/19 108/119/19
f 73/117/19 108/119/19 111/120/19
f 76/121/20 79/122/20 115/123/20
f 76/121/20 115/123/20 104/124/20
f 80/80/3 74/79/3 113/82/3
f 80/80/3 113/82/3 117/81/3
f 71/78/2 77/77/2 107/125/2
f 71/78/2 107/125/2 110/114/2
f 123/126/3 125/127/3 137/128/3
f 123/126/3 137/128/3 134/129/3
f 127/130/11 133/131/11 145/132/11
f 127/130/11 145/132/11 139/133/11
f 128/134/2 131/135/2 121/136/2
f 128/134/2 121/136/2 119/137/2
f 122/138/21 132/139/21 126/140/21
f 122/138/21 126/140/21 118/141/21
f 135/142/22 124/143/22 120/144/22
f 135/142/22 120/144/22 129/145/22
s 1
f 147/146/23 141/147/23 154/148/23
s 0
f 147/146/23 154/148/23 160/149/23
f 136/150/4 130/151/4 142/152/4
f 136/150/4 142/152/4 148/153/4
f 134/129/3 137/128/3 149/154/3
f 134/129/3 149/154/3 146/155/3
f 131/135/2 128/134/2 140/156/2
f 131/135/2 140/156/2 143/157/2
f 155/158/2 152/159/2 164/160/2
f 155/158/2 164/160/2 167/161/2
f 146/155/3 149/154/3 161/162/3
f 146/155/3 161/162/3 158/163/3
f 143/157/2 140/156/2 152/159/2
f 143/157/2 152/159/2 155/158/2
f 138/164/24 144/165/24 157/166/24
f 138/164/24 157/166/24 151/167/24
f 172/168/25 166/169/25 177/170/25
f 172/168/25 177/170/25 183/171/25
f 150/172/26 156/173/26 168/174/26
f 150/172/26 168/174/26 162/175/26
f 159/176/27 153/177/27 165/178/27
f 159/176/27 165/178/27 171/179/27
f 158/163/3 161/162/3 173/180/3
f 158/163/3 173/180/3 170/181/3
f 196/182/2 193/183/2 187/184/2
f 196/182/2 187/184/2 188/185/2
f 170/181/3 173/180/3 185/186/3
f 170/181/3 185/186/3 182/187/3
f 167/161/2 164/160/2 176/188/2
f 167/161/2 176/188/2 179/189/2
f 163/190/28 169/191/28 180/192/28
f 163/190/28 180/192/28 174/193/28
f 192/194/29 197/195/29 189/196/29
f 192/194/29 189/196/29 186/197/29
f 198/198/3 201/199/3 191/200/3
f 198/198/3 191/200/3 190/201/3
f 182/187/3 185/186/3 201/199/3
f 182/187/3 201/199/3 198/198/3
s 1
f 184/202/30 178/203/30 194/204/30
s 0
f 184/202/30 194/204/30 199/205/30
f 175/206/29 181/207/29 197/195/29
f 175/206/29 197/195/29 192/194/29
f 179/189/2 176/188/2 193/183/2
f 179/189/2 193/183/2 196/182/2
f 209/208/31 206/209/31 202/210/31
f 209/208/31 202/210/31 204/211/31
f 200/212/11 195/213/11 207/214/11
f 200/212/11 207/214/11 210/215/11
f 191/200/3 201/199/3 211/216/3
f 191/200/3 211/216/3 205/217/3
f 196/182/2 188/185/2 203/218/2
f 196/182/2 203/218/2 208/219/2
f 236/220/31 215/221/31 221/222/31
f 236/220/31 221/222/31 238/223/31
f 239/224/3 223/225/3 235/226/3
f 239/224/3 235/226/3 242/227/3
f 241/228/32 234/229/32 228/230/32
f 241/228/32 228/230/32 244/231/32
f 245/232/2 229/233/2 217/234/2
f 245/232/2 217/234/2 237/235/2
f 219/236/33 231/237/33 225/238/33
f 219/236/33 225/238/33 213/239/33
f 233/240/34 222/241/34 216/242/34
f 233/240/34 216/242/34 227/243/34
f 226/244/2 245/232/2 237/235/2
f 226/244/2 237/235/2 214/245/2
f 230/246/35 240/247/35 243/248/35
f 230/246/35 243/248/35 224/249/35
f 220/250/3 239/224/3 242/227/3
f 220/250/3 242/227/3 232/251/3
f 212/252/31 236/220/31 238/223/31
f 212/252/31 238/223/31 218/253/31
f 257/254/3 254/255/3 278/256/3
f 257/254/3 278/256/3 281/257/3
f 254/255/3 257/254/3 269/258/3
f 254/255/3 269/258/3 266/259/3
f 264/260/1 267/261/1 261/262/1
f 264/260/1 261/262/1 258/263/1
f 260/264/2 263/265/2 251/266/2
f 260/264/2 251/266/2 248/267/2
f 252/268/36 265/269/36 259/270/36
f 252/268/36 259/270/36 246/271/36
f 268/272/37 256/273/37 250/274/37
s 1
f 268/272/37 250/274/37 262/275/37
s 0
f 273/276/38 279/277/38 291/278/38
f 273/276/38 291/278/38 285/279/38
f 248/267/2 251/266/2 275/280/2
f 248/267/2 275/280/2 272/281/2
f 249/282/39 255/283/39 280/284/39
f 249/282/39 280/284/39 274/285/39
f 253/286/11 247/287/11 271/288/11
f 253/286/11 271/288/11 277/289/11
s 1
f 288/290/40 282/291/40 295/292/40
f 288/290/40 295/292/40 301/293/40
s 0
f 276/294/41 270/295/41 283/296/41
f 276/294/41 283/296/41 289/297/41
f 281/257/3 278/256/3 290/298/3
f 281/257/3 290/298/3 293/299/3
f 272/281/2 275/280/2 287/300/2
f 272/281/2 287/300/2 284/301/2
f 294/302/42 298/303/42 304/304/42
f 294/302/42 304/304/42 300/305/42
f 293/299/3 290/298/3 302/306/3
f 293/299/3 302/306/3 305/307/3
f 284/301/2 287/300/2 299/308/2
f 284/301/2 299/308/2 296/309/2
f 286/310/43 292/311/43 303/312/43
f 286/310/43 303/312/43 297/313/43
f 367/314/31 337/315/31 315/316/31
f 367/314/31 315/316/31 352/317/31
f 353/318/3 317/319/3 329/320/3
f 353/318/3 329/320/3 355/321/3
f 361/322/1 347/323/1 321/324/1
f 361/322/1 321/324/1 356/325/1
f 357/326/2 323/327/2 311/328/2
f 357/326/2 311/328/2 351/329/2
f 333/330/11 341/331/11 319/332/11
f 333/330/11 319/332/11 307/333/11
f 348/334/4 335/335/4 310/336/4
f 348/334/4 310/336/4 322/337/4
f 328/338/4 316/339/4 338/340/4
f 328/338/4 338/340/4 345/341/4
f 313/342/11 325/343/11 343/344/11
f 313/342/11 343/344/11 331/345/11
f 331/345/11 343/344/11 341/331/11
f 331/345/11 341/331/11 333/330/11
f 354/346/1 327/347/1 344/348/1
f 354/346/1 344/348/1 358/349/1
f 350/350/31 309/351/31 334/352/31
f 350/350/31 334/352/31 364/353/31
f 332/354/31 364/353/31 367/314/31
f 332/354/31 367/314/31 330/355/31
f 306/356/31 350/350/31 364/353/31
f 306/356/31 364/353/31 332/354/31
f 342/357/1 358/349/1 361/322/1
f 342/357/1 361/322/1 340/358/1
f 324/359/1 354/346/1 358/349/1
f 324/359/1 358/349/1 342/357/1
f 320/360/2 357/326/2 351/329/2
f 320/360/2 351/329/2 308/361/2
f 340/358/1 361/322/1 356/325/1
f 340/358/1 356/325/1 318/362/1
f 314/363/3 353/318/3 355/321/3
f 314/363/3 355/321/3 326/364/3
f 330/355/31 367/314/31 352/317/31
f 330/355/31 352/317/31 312/365/31
f 365/366/4 362/367/4 359/368/4
f 365/366/4 359/368/4 368/369/4
f 349/370/3 363/371/3 366/372/3
f 349/370/3 366/372/3 336/373/3
f 346/374/2 339/375/2 369/376/2
f 346/374/2 369/376/2 360/377/2
f 414/378/4 387/379/4 380/380/4
f 414/378/4 380/380/4 420/381/4
f 426/382/1 404/383/1 396/384/1
f 426/382/1 396/384/1 376/385/1
f 370/386/44 382/387/44 389/388/44
f 370/386/44 389/388/44 373/389/44
f 436/390/3 438/391/3 407/392/3
f 436/390/3 407/392/3 428/393/3
f 379/394/45 386/395/45 390/396/45
f 379/394/45 390/396/45 383/397/45
f 403/398/46 406/399/46 437/400/46
f 400/401/47 393/402/47 397/403/47
f 400/401/47 397/403/47 405/404/47
f 421/405/48 381/406/48 384/407/48
f 421/405/49 384/407/49 423/408/49
f 413/409/2 425/410/2 385/411/2
f 413/409/2 385/411/2 372/412/2
f 431/413/2 433/414/2 425/410/2
f 431/413/2 425/410/2 413/409/2
f 395/415/49 422/405/49 424/408/49
f 395/415/49 424/408/49 432/416/49
f 388/417/46 415/418/46 417/419/46
f 388/417/50 417/419/50 391/420/50
f 375/421/3 392/422/3 419/423/3
f 375/421/3 419/423/3 410/424/3
f 374/425/11 409/426/11 412/427/11
f 374/425/11 412/427/11 371/428/11
f 401/429/4 414/378/4 420/381/4
f 401/429/4 420/381/4 394/430/4
f 435/431/11 427/432/11 377/433/11
f 435/431/11 377/433/11 430/434/11
f 395/415/49 432/416/49 398/435/49
f 378/436/2 399/437/2 433/414/2
f 378/436/2 433/414/2 431/413/2
f 416/418/46 402/438/46 437/400/46
f 416/418/46 437/400/46 418/419/46
f 410/424/3 419/423/3 438/391/3
f 410/424/3 438/391/3 436/390/3
f 439/439/31 442/440/31 448/441/31
f 439/439/31 448/441/31 445/442/31
f 464/443/3 467/444/3 462/445/3
f 464/443/3 462/445/3 459/446/3
f 457/447/1 460/448/1 454/449/1
f 457/447/1 454/449/1 451/450/1
f 469/451/2 472/452/2 444/453/2
f 469/451/2 444/453/2 441/454/2
f 463/455/11 458/456/11 452/457/11
f 463/455/11 452/457/11 468/458/11
f 466/459/51 449/460/51 443/461/51
f 466/459/51 443/461/51 471/462/51
f 461/463/52 465/464/52 470/465/52
f 461/463/52 470/465/52 455/466/52
f 446/467/11 463/455/11 468/458/11
f 446/467/11 468/458/11 440/468/11
f 453/469/2 456/470/2 472/452/2
f 453/469/2 472/452/2 469/451/2
f 447/471/3 450/472/3 467/444/3
f 447/471/3 467/444/3 464/443/3
s 1
f 476/473/53 484/474/54 105/475/53
f 484/474/54 480/476/53 105/475/53
s 0
f 487/477/55 499/478/55 495/479/55
f 512/480/5 492/481/5 497/482/5
f 512/480/5 497/482/5 517/483/5
f 518/484/6 500/485/6 488/486/6
f 518/484/6 488/486/6 514/487/6
f 502/488/8 478/489/8 486/490/8
f 502/488/8 486/490/8 509/491/8
f 508/492/7 483/493/7 475/494/7
f 508/492/7 475/494/7 506/495/7
f 474/496/11 491/497/11 511/498/11
f 474/496/11 511/498/11 505/499/11
f 434/500/11 429/501/11 411/502/11
f 434/500/11 411/502/11 408/503/11
f 481/476/56 485/474/56 477/504/56
s 1
f 494/479/57 498/478/58 116/505/57
f 498/478/58 493/506/57 116/505/57
s 0
f 513/86/1 501/85/1 510/507/1
f 513/86/1 510/507/1 516/508/1
f 510/507/1 501/85/1 507/509/1
f 510/507/1 507/509/1 504/510/1
f 89/92/2 479/91/2 94/105/2
f 92/116/3 489/108/3 496/84/3
f 92/116/3 496/84/3 86/83/3
