# Blender v2.79 (sub 0) OBJ File: 'scene.blend'
# www.blender.org
mtllib scene.mtl
o Cylinder.001
v -2.724657 1.826934 0.793053
v -2.724657 1.826934 0.849380
v -2.702893 1.824791 0.793053
v -2.702893 1.824791 0.849380
v -2.681964 1.818442 0.793053
v -2.681964 1.818442 0.849380
v -2.662677 1.808133 0.793053
v -2.662677 1.808133 0.849380
v -2.645771 1.794259 0.793053
v -2.645771 1.794259 0.849380
v -2.631897 1.777353 0.793053
v -2.631897 1.777353 0.849380
v -2.621587 1.758065 0.793053
v -2.621587 1.758065 0.849380
v -2.615239 1.737137 0.793053
v -2.615239 1.737137 0.849380
v -2.613095 1.715372 0.793053
v -2.613095 1.715372 0.849380
v -2.615239 1.693608 0.793053
v -2.615239 1.693608 0.849380
v -2.621587 1.672679 0.793053
v -2.621587 1.672679 0.849380
v -2.631897 1.653392 0.793053
v -2.631897 1.653392 0.849380
v -2.645771 1.636486 0.793053
v -2.645771 1.636486 0.849380
v -2.662677 1.622612 0.793053
v -2.662677 1.622612 0.849380
v -2.681964 1.612302 0.793053
v -2.681964 1.612302 0.849380
v -2.702893 1.605954 0.793053
v -2.702893 1.605954 0.849380
v -2.724657 1.603810 0.793053
v -2.724657 1.603810 0.849380
v -2.746422 1.605954 0.793053
v -2.746422 1.605954 0.849380
v -2.767350 1.612302 0.793053
v -2.767350 1.612302 0.849380
v -2.786638 1.622612 0.793053
v -2.786638 1.622612 0.849380
v -2.803544 1.636486 0.793053
v -2.803544 1.636486 0.849380
v -2.817418 1.653392 0.793053
v -2.817418 1.653392 0.849380
v -2.827727 1.672679 0.793053
v -2.827727 1.672679 0.849380
v -2.834076 1.693608 0.793053
v -2.834076 1.693608 0.849380
v -2.836219 1.715372 0.793053
v -2.836219 1.715372 0.849380
v -2.834076 1.737137 0.793053
v -2.834076 1.737137 0.849380
v -2.827727 1.758065 0.793053
v -2.827727 1.758065 0.849380
v -2.817418 1.777353 0.793053
v -2.817418 1.777353 0.849380
v -2.803544 1.794259 0.793053
v -2.803544 1.794259 0.849380
v -2.786638 1.808133 0.793053
v -2.786638 1.808133 0.849380
v -2.767350 1.818442 0.793053
v -2.767350 1.818442 0.849380
v -2.746422 1.824791 0.793053
v -2.746422 1.824791 0.849380
v -2.713931 1.769300 0.875198
v -2.702893 1.824791 0.860984
v -2.724657 1.826934 0.860984
v -2.724657 1.770356 0.875198
v -2.703616 1.766171 0.875198
v -2.681964 1.818442 0.860984
v -2.694110 1.761090 0.875198
v -2.662677 1.808133 0.860984
v -2.685778 1.754252 0.875198
v -2.645771 1.794259 0.860984
v -2.678940 1.745920 0.875198
v -2.631897 1.777353 0.860984
v -2.673859 1.736414 0.875198
v -2.621587 1.758065 0.860984
v -2.670730 1.726099 0.875198
v -2.615239 1.737137 0.860984
v -2.669673 1.715372 0.875198
v -2.613095 1.715372 0.860984
v -2.670730 1.704646 0.875198
v -2.615239 1.693608 0.860984
v -2.673859 1.694331 0.875198
v -2.621587 1.672679 0.860984
v -2.678940 1.684825 0.875198
v -2.631897 1.653392 0.860984
v -2.685778 1.676493 0.875198
v -2.645771 1.636486 0.860984
v -2.694110 1.669655 0.875198
v -2.662677 1.622612 0.860984
v -2.703616 1.664574 0.875198
v -2.681964 1.612302 0.860984
v -2.713931 1.661445 0.875198
v -2.702893 1.605954 0.860984
v -2.724657 1.660388 0.875198
v -2.724657 1.603810 0.860984
v -2.735384 1.661445 0.875198
v -2.746422 1.605954 0.860984
v -2.745699 1.664574 0.875198
v -2.767350 1.612302 0.860984
v -2.755205 1.669655 0.875198
v -2.786638 1.622612 0.860984
v -2.763537 1.676493 0.875198
v -2.803544 1.636486 0.860984
v -2.770375 1.684825 0.875198
v -2.817418 1.653392 0.860984
v -2.775456 1.694331 0.875198
v -2.827727 1.672679 0.860984
v -2.778585 1.704646 0.875198
v -2.834076 1.693608 0.860984
v -2.779641 1.715372 0.875198
v -2.836219 1.715372 0.860984
v -2.778585 1.726099 0.875198
v -2.834076 1.737137 0.860984
v -2.775456 1.736414 0.875198
v -2.827727 1.758065 0.860984
v -2.770375 1.745920 0.875198
v -2.817418 1.777353 0.860984
v -2.763537 1.754252 0.875198
v -2.803544 1.794259 0.860984
v -2.755205 1.761090 0.875198
v -2.786638 1.808133 0.860984
v -2.745699 1.766171 0.875198
v -2.767350 1.818442 0.860984
v -2.735384 1.769300 0.875198
v -2.746422 1.824791 0.860984
vt 0.000000 0.000000
vt 0.000000 0.000000
vt 0.000000 0.000000
vt 0.000000 0.000000
vt 0.000000 0.000000
vt 0.000000 0.000000
vt 0.000000 0.000000
vt 0.000000 0.000000
vt 0.000000 0.000000
vt 0.000000 0.000000
vt 0.000000 0.000000
vt 0.000000 0.000000
vt 0.000000 0.000000
vt 0.000000 0.000000
vt 0.000000 0.000000
vt 0.000000 0.000000
vt 0.000000 0.000000
vt 0.000000 0.000000
vt 0.000000 0.000000
vt 0.000000 0.000000
vt 0.000000 0.000000
vt 0.000000 0.000000
vt 0.000000 0.000000
vt 0.000000 0.000000
vt 0.000000 0.000000
vt 0.000000 0.000000
vt 0.000000 0.000000
vt 0.000000 0.000000
vt 0.000000 0.000000
vt 0.000000 0.000000
vt 0.000000 0.000000
vt 0.000000 0.000000
vt 0.000000 0.000000
vt 0.000000 0.000000
vt 0.000000 0.000000
vt 0.000000 0.000000
vt 0.000000 0.000000
vt 0.000000 0.000000
vt 0.000000 0.000000
vt 0.000000 0.000000
vt 0.000000 0.000000
vt 0.000000 0.000000
vt 0.000000 0.000000
vt 0.000000 0.000000
vt 0.000000 0.000000
vt 0.000000 0.000000
vt 0.000000 0.000000
vt 0.000000 0.000000
vt 0.000000 0.000000
vt 0.000000 0.000000
vt 0.000000 0.000000
vt 0.000000 0.000000
vt 0.000000 0.000000
vt 0.000000 0.000000
vt 0.000000 0.000000
vt 0.000000 0.000000
vt 0.000000 0.000000
vt 0.000000 0.000000
vt 0.000000 0.000000
vt 0.000000 0.000000
vt 0.000000 0.000000
vt 0.000000 0.000000
vt 0.000000 0.000000
vt 0.000000 0.000000
vt 0.000000 0.000000
vt 0.000000 0.000000
vt 0.000000 0.000000
vt 0.000000 0.000000
vt 0.000000 0.000000
vt 0.000000 0.000000
vt 0.000000 0.000000
vt 0.000000 0.000000
vt 0.000000 0.000000
vt 0.000000 0.000000
vt 0.000000 0.000000
vt 0.000000 0.000000
vt 0.000000 0.000000
vt 0.000000 0.000000
vt 0.000000 0.000000
vt 0.000000 0.000000
vt 0.000000 0.000000
vt 0.000000 0.000000
vt 0.000000 0.000000
vt 0.000000 0.000000
vt 0.000000 0.000000
vt 0.000000 0.000000
vt 0.000000 0.000000
vt 0.000000 0.000000
vt 0.000000 0.000000
vt 0.000000 0.000000
vt 0.000000 0.000000
vt 0.152697 0.578651
vt 0.150244 0.579053
vt 0.147791 0.578651
vt 0.145432 0.577462
vt 0.143258 0.575531
vt 0.141352 0.572932
vt 0.139788 0.569764
vt 0.138626 0.566151
vt 0.137910 0.562230
vt 0.137669 0.558153
vt 0.137910 0.554075
vt 0.138626 0.550154
vt 0.139788 0.546541
vt 0.141352 0.543374
vt 0.143258 0.540775
vt 0.145432 0.538843
vt 0.147791 0.537654
vt 0.150244 0.537252
vt 0.152697 0.537654
vt 0.155056 0.538843
vt 0.157230 0.540775
vt 0.159136 0.543374
vt 0.160700 0.546541
vt 0.161862 0.550154
vt 0.162577 0.554075
vt 0.162819 0.558153
vt 0.162577 0.562230
vt 0.161862 0.566151
vt 0.160700 0.569764
vt 0.159136 0.572931
vt 0.157230 0.575531
vt 0.155056 0.577462
vt 0.000000 0.000000
vt 0.000000 0.000000
vt 0.000000 0.000000
vt 0.000000 0.000000
vt 0.000000 0.000000
vt 0.154185 0.593504
vt 0.150244 0.594149
vt 0.157974 0.591594
vt 0.161466 0.588491
vt 0.164527 0.584316
vt 0.167039 0.579229
vt 0.168906 0.573424
vt 0.170055 0.567126
vt 0.170444 0.560576
vt 0.170055 0.554027
vt 0.168906 0.547729
vt 0.167039 0.541924
vt 0.164527 0.536837
vt 0.161466 0.532662
vt 0.157974 0.529559
vt 0.154185 0.527649
vt 0.150244 0.527004
vt 0.146303 0.527649
vt 0.142514 0.529559
vt 0.139022 0.532662
vt 0.135961 0.536837
vt 0.133448 0.541924
vt 0.131582 0.547729
vt 0.130432 0.554027
vt 0.130044 0.560576
vt 0.130432 0.567126
vt 0.131582 0.573424
vt 0.133449 0.579229
vt 0.135961 0.584316
vt 0.139022 0.588491
vt 0.142514 0.591594
vt 0.146303 0.593504
vn 0.0980 0.9952 0.0000
vn 0.2903 0.9569 0.0000
vn 0.4714 0.8819 0.0000
vn 0.6344 0.7730 0.0000
vn 0.7730 0.6344 0.0000
vn 0.8819 0.4714 0.0000
vn 0.9569 0.2903 0.0000
vn 0.9952 0.0980 0.0000
vn 0.9952 -0.0980 0.0000
vn 0.9569 -0.2903 0.0000
vn 0.8819 -0.4714 0.0000
vn 0.7730 -0.6344 0.0000
vn 0.6344 -0.7730 0.0000
vn 0.4714 -0.8819 0.0000
vn 0.2903 -0.9569 0.0000
vn 0.0980 -0.9952 0.0000
vn -0.0980 -0.9952 0.0000
vn -0.2903 -0.9569 0.0000
vn -0.4714 -0.8819 0.0000
vn -0.6344 -0.7730 0.0000
vn -0.7730 -0.6344 0.0000
vn -0.8819 -0.4714 0.0000
vn -0.9569 -0.2903 0.0000
vn -0.9952 -0.0980 0.0000
vn -0.9952 0.0980 0.0000
vn -0.9569 0.2903 0.0000
vn -0.8819 0.4714 0.0000
vn -0.7730 0.6344 0.0000
vn -0.6344 0.7730 0.0000
vn -0.4714 0.8819 0.0000
vn -0.2903 0.9569 0.0000
vn -0.0980 0.9952 0.0000
vn 0.0000 0.0000 -1.0000
vn -0.0000 0.0000 1.0000
vn 0.0240 0.2436 0.9696
vn 0.0711 0.2342 0.9696
vn 0.1154 0.2159 0.9696
vn 0.1553 0.1892 0.9696
vn 0.1892 0.1553 0.9696
vn 0.2159 0.1154 0.9696
vn 0.2342 0.0711 0.9696
vn 0.2436 0.0240 0.9696
vn 0.2436 -0.0240 0.9696
vn 0.2342 -0.0711 0.9696
vn 0.2159 -0.1154 0.9696
vn 0.1892 -0.1553 0.9696
vn 0.1553 -0.1892 0.9696
vn 0.1154 -0.2159 0.9696
vn 0.0711 -0.2342 0.9696
vn 0.0240 -0.2436 0.9696
vn -0.0240 -0.2436 0.9696
vn -0.0711 -0.2342 0.9696
vn -0.1154 -0.2159 0.9696
vn -0.1553 -0.1892 0.9696
vn -0.1892 -0.1553 0.9696
vn -0.2159 -0.1154 0.9696
vn -0.2342 -0.0711 0.9696
vn -0.2436 -0.0240 0.9696
vn -0.2436 0.0240 0.9696
vn -0.2342 0.0711 0.9696
vn -0.2159 0.1154 0.9696
vn -0.1892 0.1553 0.9696
vn -0.1553 0.1892 0.9696
vn -0.1154 0.2159 0.9696
vn -0.0710 0.2342 0.9696
vn -0.0240 0.2436 0.9696
usemtl Material
s off
f 1/1/1 2/2/1 4/3/1 3/4/1
f 3/4/2 4/3/2 6/5/2 5/6/2
f 5/6/3 6/5/3 8/7/3 7/8/3
f 7/8/4 8/7/4 10/9/4 9/10/4
f 9/10/5 10/9/5 12/11/5 11/12/5
f 11/12/6 12/11/6 14/13/6 13/14/6
f 13/14/7 14/13/7 16/15/7 15/16/7
f 15/16/8 16/15/8 18/17/8 17/18/8
f 17/18/9 18/17/9 20/19/9 19/20/9
f 19/20/10 20/19/10 22/21/10 21/22/10
f 21/22/11 22/21/11 24/23/11 23/24/11
f 23/24/12 24/23/12 26/25/12 25/26/12
f 25/26/13 26/25/13 28/27/13 27/28/13
f 27/28/14 28/27/14 30/29/14 29/30/14
f 29/30/15 30/29/15 32/31/15 31/32/15
f 31/32/16 32/31/16 34/33/16 33/34/16
f 33/34/17 34/33/17 36/35/17 35/36/17
f 35/36/18 36/35/18 38/37/18 37/38/18
f 37/38/19 38/37/19 40/39/19 39/40/19
f 39/40/20 40/39/20 42/41/20 41/42/20
f 41/42/21 42/41/21 44/43/21 43/44/21
f 43/44/22 44/43/22 46/45/22 45/46/22
f 45/46/23 46/45/23 48/47/23 47/48/23
f 47/48/24 48/47/24 50/49/24 49/50/24
f 49/50/25 50/49/25 52/51/25 51/52/25
f 51/52/26 52/51/26 54/53/26 53/54/26
f 53/54/27 54/53/27 56/55/27 55/56/27
f 55/56/28 56/55/28 58/57/28 57/58/28
f 57/58/29 58/57/29 60/59/29 59/60/29
f 59/60/30 60/59/30 62/61/30 61/62/30
f 8/7/3 6/5/3 70/63/3 72/64/3
f 61/62/31 62/61/31 64/65/31 63/66/31
f 63/66/32 64/65/32 2/2/32 1/1/32
f 1/1/33 3/4/33 5/6/33 7/8/33 9/10/33 11/12/33 13/14/33 15/16/33 17/18/33 19/20/33 21/22/33 23/24/33 25/26/33 27/28/33 29/30/33 31/32/33 33/34/33 35/36/33 37/38/33 39/40/33 41/42/33 43/44/33 45/46/33 47/48/33 49/50/33 51/52/33 53/54/33 55/56/33 57/58/33 59/60/33 61/62/33 63/66/33
f 6/5/2 4/3/2 66/67/2 70/63/2
f 64/65/31 62/61/31 126/68/31 128/69/31
f 52/51/25 50/49/25 114/70/25 116/71/25
f 58/57/28 56/55/28 120/72/28 122/73/28
f 36/35/17 34/33/17 98/74/17 100/75/17
f 48/47/23 46/45/23 110/76/23 112/77/23
f 42/41/20 40/39/20 104/78/20 106/79/20
f 54/53/26 52/51/26 116/71/26 118/80/26
f 32/31/15 30/29/15 94/81/15 96/82/15
f 26/25/12 24/23/12 88/83/12 90/84/12
f 38/37/18 36/35/18 100/75/18 102/85/18
f 20/19/9 18/17/9 82/86/9 84/87/9
f 10/9/4 8/7/4 72/64/4 74/88/4
f 22/21/10 20/19/10 84/87/10 86/89/10
f 16/15/7 14/13/7 78/90/7 80/91/7
f 65/92/34 68/93/34 127/94/34 125/95/34 123/96/34 121/97/34 119/98/34 117/99/34 115/100/34 113/101/34 111/102/34 109/103/34 107/104/34 105/105/34 103/106/34 101/107/34 99/108/34 97/109/34 95/110/34 93/111/34 91/112/34 89/113/34 87/114/34 85/115/34 83/116/34 81/117/34 79/118/34 77/119/34 75/120/34 73/121/34 71/122/34 69/123/34
f 60/59/29 58/57/29 122/73/29 124/124/29
f 62/61/30 60/59/30 124/124/30 126/68/30
f 44/43/21 42/41/21 106/79/21 108/125/21
f 56/55/27 54/53/27 118/80/27 120/72/27
f 50/49/24 48/47/24 112/77/24 114/70/24
f 40/39/19 38/37/19 102/85/19 104/78/19
f 34/33/16 32/31/16 96/82/16 98/74/16
f 46/45/22 44/43/22 108/125/22 110/76/22
f 28/27/13 26/25/13 90/84/13 92/126/13
f 18/17/8 16/15/8 80/91/8 82/86/8
f 30/29/14 28/27/14 92/126/14 94/81/14
f 12/11/5 10/9/5 74/88/5 76/127/5
f 24/23/11 22/21/11 86/89/11 88/83/11
f 14/13/6 12/11/6 76/127/6 78/90/6
f 2/2/32 64/65/32 128/69/32 67/128/32
f 66/129/35 67/130/35 68/93/35 65/92/35
f 70/131/36 66/129/36 65/92/36 69/123/36
f 72/132/37 70/131/37 69/123/37 71/122/37
f 74/133/38 72/132/38 71/122/38 73/121/38
f 76/134/39 74/133/39 73/121/39 75/120/39
f 78/135/40 76/134/40 75/120/40 77/119/40
f 80/136/41 78/135/41 77/119/41 79/118/41
f 82/137/42 80/136/42 79/118/42 81/117/42
f 84/138/43 82/137/43 81/117/43 83/116/43
f 86/139/44 84/138/44 83/116/44 85/115/44
f 88/140/45 86/139/45 85/115/45 87/114/45
f 90/141/46 88/140/46 87/114/46 89/113/46
f 92/142/47 90/141/47 89/113/47 91/112/47
f 94/143/48 92/142/48 91/112/48 93/111/48
f 96/144/49 94/143/49 93/111/49 95/110/49
f 98/145/50 96/144/50 95/110/50 97/109/50
f 100/146/51 98/145/51 97/109/51 99/108/51
f 102/147/52 100/146/52 99/108/52 101/107/52
f 104/148/53 102/147/53 101/107/53 103/106/53
f 106/149/54 104/148/54 103/106/54 105/105/54
f 108/150/55 106/149/55 105/105/55 107/104/55
f 110/151/56 108/150/56 107/104/56 109/103/56
f 112/152/57 110/151/57 109/103/57 111/102/57
f 114/153/58 112/152/58 111/102/58 113/101/58
f 116/154/59 114/153/59 113/101/59 115/100/59
f 118/155/60 116/154/60 115/100/60 117/99/60
f 120/156/61 118/155/61 117/99/61 119/98/61
f 122/157/62 120/156/62 119/98/62 121/97/62
f 124/158/63 122/157/63 121/97/63 123/96/63
f 126/159/64 124/158/64 123/96/64 125/95/64
f 128/160/65 126/159/65 125/95/65 127/94/65
f 67/130/66 128/160/66 127/94/66 68/93/66
f 4/3/1 2/2/1 67/128/1 66/67/1
o Cylinder
v -2.326203 1.855409 0.785864
v -2.326203 1.855409 0.856568
v -2.298883 1.852719 0.785864
v -2.298883 1.852719 0.856568
v -2.272613 1.844750 0.785864
v -2.272613 1.844750 0.856568
v -2.248402 1.831809 0.785864
v -2.248402 1.831809 0.856568
v -2.227181 1.814394 0.785864
v -2.227181 1.814394 0.856568
v -2.209766 1.793173 0.785864
v -2.209766 1.793173 0.856568
v -2.196825 1.768962 0.785864
v -2.196825 1.768962 0.856568
v -2.188856 1.742692 0.785864
v -2.188856 1.742692 0.856568
v -2.186166 1.715372 0.785864
v -2.186166 1.715372 0.856568
v -2.188856 1.688052 0.785864
v -2.188856 1.688052 0.856568
v -2.196825 1.661783 0.785864
v -2.196825 1.661783 0.856568
v -2.209766 1.637572 0.785864
v -2.209766 1.637572 0.856568
v -2.227181 1.616351 0.785864
v -2.227181 1.616351 0.856568
v -2.248402 1.598936 0.785864
v -2.248402 1.598936 0.856568
v -2.272613 1.585995 0.785864
v -2.272613 1.585995 0.856568
v -2.298883 1.578026 0.785864
v -2.298883 1.578026 0.856568
v -2.326203 1.575335 0.785864
v -2.326203 1.575335 0.856568
v -2.353523 1.578026 0.785864
v -2.353523 1.578026 0.856568
v -2.379792 1.585995 0.785864
v -2.379792 1.585995 0.856568
v -2.404003 1.598936 0.785864
v -2.404003 1.598936 0.856568
v -2.425224 1.616351 0.785864
v -2.425224 1.616351 0.856568
v -2.442639 1.637572 0.785864
v -2.442639 1.637572 0.856568
v -2.455580 1.661783 0.785864
v -2.455580 1.661783 0.856568
v -2.463549 1.688053 0.785864
v -2.463549 1.688053 0.856568
v -2.466240 1.715372 0.785864
v -2.466240 1.715372 0.856568
v -2.463549 1.742692 0.785864
v -2.463549 1.742692 0.856568
v -2.455580 1.768962 0.785864
v -2.455580 1.768962 0.856568
v -2.442639 1.793173 0.785864
v -2.442639 1.793173 0.856568
v -2.425224 1.814394 0.785864
v -2.425224 1.814394 0.856568
v -2.404003 1.831809 0.785864
v -2.404003 1.831809 0.856568
v -2.379792 1.844750 0.785864
v -2.379792 1.844750 0.856568
v -2.353522 1.852719 0.785864
v -2.353522 1.852719 0.856568
v -2.312738 1.783064 0.888976
v -2.298883 1.852719 0.871134
v -2.326203 1.855409 0.871134
v -2.326203 1.784390 0.888976
v -2.299791 1.779137 0.888976
v -2.272613 1.844750 0.871134
v -2.287858 1.772759 0.888976
v -2.248402 1.831809 0.871134
v -2.277400 1.764175 0.888976
v -2.227181 1.814394 0.871134
v -2.268816 1.753717 0.888976
v -2.209766 1.793173 0.871134
v -2.262439 1.741784 0.888976
v -2.196825 1.768962 0.871134
v -2.258511 1.728837 0.888976
v -2.188856 1.742692 0.871134
v -2.257185 1.715372 0.888976
v -2.186166 1.715372 0.871134
v -2.258511 1.701908 0.888976
v -2.188856 1.688052 0.871134
v -2.262439 1.688960 0.888976
v -2.196825 1.661783 0.871134
v -2.268816 1.677028 0.888976
v -2.209766 1.637572 0.871134
v -2.277400 1.666569 0.888976
v -2.227181 1.616351 0.871134
v -2.287858 1.657986 0.888976
v -2.248402 1.598936 0.871134
v -2.299791 1.651608 0.888976
v -2.272613 1.585995 0.871134
v -2.312738 1.647681 0.888976
v -2.298883 1.578026 0.871134
v -2.326203 1.646354 0.888976
v -2.326203 1.575335 0.871134
v -2.339667 1.647681 0.888976
v -2.353523 1.578026 0.871134
v -2.352615 1.651608 0.888976
v -2.379792 1.585995 0.871134
v -2.364547 1.657986 0.888976
v -2.404003 1.598936 0.871134
v -2.375006 1.666569 0.888976
v -2.425224 1.616351 0.871134
v -2.383589 1.677028 0.888976
v -2.442639 1.637572 0.871134
v -2.389967 1.688960 0.888976
v -2.455580 1.661783 0.871134
v -2.393894 1.701908 0.888976
v -2.463549 1.688053 0.871134
v -2.395221 1.715372 0.888976
v -2.466240 1.715372 0.871134
v -2.393894 1.728837 0.888976
v -2.463549 1.742692 0.871134
v -2.389967 1.741784 0.888976
v -2.455580 1.768962 0.871134
v -2.383589 1.753717 0.888976
v -2.442639 1.793173 0.871134
v -2.375005 1.764175 0.888976
v -2.425224 1.814394 0.871134
v -2.364547 1.772759 0.888976
v -2.404003 1.831809 0.871134
v -2.352614 1.779137 0.888976
v -2.379792 1.844750 0.871134
v -2.339667 1.783064 0.888976
v -2.353522 1.852719 0.871134
vt 0.000000 0.000000
vt 0.000000 0.000000
vt 0.000000 0.000000
vt 0.000000 0.000000
vt 0.000000 0.000000
vt 0.000000 0.000000
vt 0.000000 0.000000
vt 0.000000 0.000000
vt 0.000000 0.000000
vt 0.000000 0.000000
vt 0.000000 0.000000
vt 0.000000 0.000000
vt 0.000000 0.000000
vt 0.000000 0.000000
vt 0.000000 0.000000
vt 0.000000 0.000000
vt 0.000000 0.000000
vt 0.000000 0.000000
vt 0.000000 0.000000
vt 0.000000 0.000000
vt 0.000000 0.000000
vt 0.000000 0.000000
vt 0.000000 0.000000
vt 0.000000 0.000000
vt 0.000000 0.000000
vt 0.000000 0.000000
vt 0.000000 0.000000
vt 0.000000 0.000000
vt 0.000000 0.000000
vt 0.000000 0.000000
vt 0.000000 0.000000
vt 0.000000 0.000000
vt 0.000000 0.000000
vt 0.000000 0.000000
vt 0.000000 0.000000
vt 0.000000 0.000000
vt 0.000000 0.000000
vt 0.000000 0.000000
vt 0.000000 0.000000
vt 0.000000 0.000000
vt 0.000000 0.000000
vt 0.000000 0.000000
vt 0.000000 0.000000
vt 0.000000 0.000000
vt 0.000000 0.000000
vt 0.000000 0.000000
vt 0.000000 0.000000
vt 0.000000 0.000000
vt 0.000000 0.000000
vt 0.000000 0.000000
vt 0.000000 0.000000
vt 0.000000 0.000000
vt 0.000000 0.000000
vt 0.000000 0.000000
vt 0.000000 0.000000
vt 0.000000 0.000000
vt 0.000000 0.000000
vt 0.000000 0.000000
vt 0.000000 0.000000
vt 0.000000 0.000000
vt 0.000000 0.000000
vt 0.000000 0.000000
vt 0.000000 0.000000
vt 0.000000 0.000000
vt 0.000000 0.000000
vt 0.000000 0.000000
vt 0.000000 0.000000
vt 0.000000 0.000000
vt 0.000000 0.000000
vt 0.000000 0.000000
vt 0.000000 0.000000
vt 0.000000 0.000000
vt 0.000000 0.000000
vt 0.000000 0.000000
vt 0.000000 0.000000
vt 0.000000 0.000000
vt 0.000000 0.000000
vt 0.000000 0.000000
vt 0.000000 0.000000
vt 0.000000 0.000000
vt 0.000000 0.000000
vt 0.000000 0.000000
vt 0.000000 0.000000
vt 0.000000 0.000000
vt 0.000000 0.000000
vt 0.000000 0.000000
vt 0.000000 0.000000
vt 0.000000 0.000000
vt 0.000000 0.000000
vt 0.000000 0.000000
vt 0.000000 0.000000
vt 0.152697 0.578651
vt 0.150244 0.579053
vt 0.147791 0.578651
vt 0.145432 0.577462
vt 0.143258 0.575531
vt 0.141352 0.572932
vt 0.139788 0.569764
vt 0.138626 0.566151
vt 0.137910 0.562230
vt 0.137669 0.558153
vt 0.137910 0.554075
vt 0.138626 0.550154
vt 0.139788 0.546541
vt 0.141352 0.543374
vt 0.143258 0.540775
vt 0.145432 0.538843
vt 0.147791 0.537654
vt 0.150244 0.537252
vt 0.152697 0.537654
vt 0.155056 0.538843
vt 0.157230 0.540775
vt 0.159136 0.543374
vt 0.160700 0.546541
vt 0.161862 0.550154
vt 0.162577 0.554075
vt 0.162819 0.558153
vt 0.162577 0.562230
vt 0.161862 0.566151
vt 0.160700 0.569764
vt 0.159136 0.572931
vt 0.157230 0.575531
vt 0.155056 0.577462
vt 0.000000 0.000000
vt 0.000000 0.000000
vt 0.000000 0.000000
vt 0.000000 0.000000
vt 0.000000 0.000000
vt 0.154185 0.593504
vt 0.150244 0.594149
vt 0.157974 0.591594
vt 0.161466 0.588491
vt 0.164527 0.584316
vt 0.167039 0.579229
vt 0.168906 0.573424
vt 0.170055 0.567126
vt 0.170444 0.560576
vt 0.170055 0.554027
vt 0.168906 0.547729
vt 0.167039 0.541924
vt 0.164527 0.536837
vt 0.161466 0.532662
vt 0.157974 0.529559
vt 0.154185 0.527649
vt 0.150244 0.527004
vt 0.146303 0.527649
vt 0.142514 0.529559
vt 0.139022 0.532662
vt 0.135961 0.536837
vt 0.133448 0.541924
vt 0.131582 0.547729
vt 0.130432 0.554027
vt 0.130044 0.560576
vt 0.130432 0.567126
vt 0.131582 0.573424
vt 0.133449 0.579229
vt 0.135961 0.584316
vt 0.139022 0.588491
vt 0.142514 0.591594
vt 0.146303 0.593504
vn 0.0980 0.9952 0.0000
vn 0.2903 0.9569 0.0000
vn 0.4714 0.8819 0.0000
vn 0.6344 0.7730 0.0000
vn 0.7730 0.6344 0.0000
vn 0.8819 0.4714 0.0000
vn 0.9569 0.2903 0.0000
vn 0.9952 0.0980 0.0000
vn 0.9952 -0.0980 0.0000
vn 0.9569 -0.2903 0.0000
vn 0.8819 -0.4714 0.0000
vn 0.7730 -0.6344 0.0000
vn 0.6344 -0.7730 0.0000
vn 0.4714 -0.8819 0.0000
vn 0.2903 -0.9569 0.0000
vn 0.0980 -0.9952 0.0000
vn -0.0980 -0.9952 0.0000
vn -0.2903 -0.9569 0.0000
vn -0.4714 -0.8819 0.0000
vn -0.6344 -0.7730 0.0000
vn -0.7730 -0.6344 0.0000
vn -0.8819 -0.4714 0.0000
vn -0.9569 -0.2903 0.0000
vn -0.9952 -0.0980 0.0000
vn -0.9952 0.0980 0.0000
vn -0.9569 0.2903 0.0000
vn -0.8819 0.4714 0.0000
vn -0.7730 0.6344 0.0000
vn -0.6344 0.7730 0.0000
vn -0.4714 0.8819 0.0000
vn -0.2903 0.9569 0.0000
vn -0.0980 0.9952 0.0000
vn -0.0000 0.0000 -1.0000
vn 0.0000 0.0000 1.0000
vn 0.0240 0.2436 0.9696
vn 0.0711 0.2342 0.9696
vn 0.1154 0.2159 0.9696
vn 0.1553 0.1892 0.9696
vn 0.1892 0.1553 0.9696
vn 0.2159 0.1154 0.9696
vn 0.2342 0.0711 0.9696
vn 0.2436 0.0240 0.9696
vn 0.2436 -0.0240 0.9696
vn 0.2342 -0.0711 0.9696
vn 0.2159 -0.1154 0.9696
vn 0.1892 -0.1553 0.9696
vn 0.1553 -0.1892 0.9696
vn 0.1154 -0.2159 0.9696
vn 0.0711 -0.2342 0.9696
vn 0.0240 -0.2436 0.9696
vn -0.0240 -0.2436 0.9696
vn -0.0711 -0.2342 0.9696
vn -0.1154 -0.2159 0.9696
vn -0.1553 -0.1892 0.9696
vn -0.1892 -0.1553 0.9696
vn -0.2159 -0.1154 0.9696
vn -0.2342 -0.0711 0.9696
vn -0.2436 -0.0240 0.9696
vn -0.2436 0.0240 0.9696
vn -0.2342 0.0711 0.9696
vn -0.2159 0.1154 0.9696
vn -0.1892 0.1553 0.9696
vn -0.1553 0.1892 0.9696
vn -0.1154 0.2159 0.9696
vn -0.0711 0.2342 0.9696
vn -0.0240 0.2436 0.9696
usemtl Material
s off
f 129/161/67 130/162/67 132/163/67 131/164/67
f 131/164/68 132/163/68 134/165/68 133/166/68
f 133/166/69 134/165/69 136/167/69 135/168/69
f 135/168/70 136/167/70 138/169/70 137/170/70
f 137/170/71 138/169/71 140/171/71 139/172/71
f 139/172/72 140/171/72 142/173/72 141/174/72
f 141/174/73 142/173/73 144/175/73 143/176/73
f 143/176/74 144/175/74 146/177/74 145/178/74
f 145/178/75 146/177/75 148/179/75 147/180/75
f 147/180/76 148/179/76 150/181/76 149/182/76
f 149/182/77 150/181/77 152/183/77 151/184/77
f 151/184/78 152/183/78 154/185/78 153/186/78
f 153/186/79 154/185/79 156/187/79 155/188/79
f 155/188/80 156/187/80 158/189/80 157/190/80
f 157/190/81 158/189/81 160/191/81 159/192/81
f 159/192/82 160/191/82 162/193/82 161/194/82
f 161/194/83 162/193/83 164/195/83 163/196/83
f 163/196/84 164/195/84 166/197/84 165/198/84
f 165/198/85 166/197/85 168/199/85 167/200/85
f 167/200/86 168/199/86 170/201/86 169/202/86
f 169/202/87 170/201/87 172/203/87 171/204/87
f 171/204/88 172/203/88 174/205/88 173/206/88
f 173/206/89 174/205/89 176/207/89 175/208/89
f 175/208/90 176/207/90 178/209/90 177/210/90
f 177/210/91 178/209/91 180/211/91 179/212/91
f 179/212/92 180/211/92 182/213/92 181/214/92
f 181/214/93 182/213/93 184/215/93 183/216/93
f 183/216/94 184/215/94 186/217/94 185/218/94
f 185/218/95 186/217/95 188/219/95 187/220/95
f 187/220/96 188/219/96 190/221/96 189/222/96
f 136/167/69 134/165/69 198/223/69 200/224/69
f 189/222/97 190/221/97 192/225/97 191/226/97
f 191/226/98 192/225/98 130/162/98 129/161/98
f 129/161/99 131/164/99 133/166/99 135/168/99 137/170/99 139/172/99 141/174/99 143/176/99 145/178/99 147/180/99 149/182/99 151/184/99 153/186/99 155/188/99 157/190/99 159/192/99 161/194/99 163/196/99 165/198/99 167/200/99 169/202/99 171/204/99 173/206/99 175/208/99 177/210/99 179/212/99 181/214/99 183/216/99 185/218/99 187/220/99 189/222/99 191/226/99
f 134/165/68 132/163/68 194/227/68 198/223/68
f 192/225/97 190/221/97 254/228/97 256/229/97
f 180/211/91 178/209/91 242/230/91 244/231/91
f 186/217/94 184/215/94 248/232/94 250/233/94
f 164/195/83 162/193/83 226/234/83 228/235/83
f 176/207/89 174/205/89 238/236/89 240/237/89
f 170/201/86 168/199/86 232/238/86 234/239/86
f 182/213/92 180/211/92 244/231/92 246/240/92
f 160/191/81 158/189/81 222/241/81 224/242/81
f 154/185/78 152/183/78 216/243/78 218/244/78
f 166/197/84 164/195/84 228/235/84 230/245/84
f 148/179/75 146/177/75 210/246/75 212/247/75
f 138/169/70 136/167/70 200/224/70 202/248/70
f 150/181/76 148/179/76 212/247/76 214/249/76
f 144/175/73 142/173/73 206/250/73 208/251/73
f 193/252/100 196/253/100 255/254/100 253/255/100 251/256/100 249/257/100 247/258/100 245/259/100 243/260/100 241/261/100 239/262/100 237/263/100 235/264/100 233/265/100 231/266/100 229/267/100 227/268/100 225/269/100 223/270/100 221/271/100 219/272/100 217/273/100 215/274/100 213/275/100 211/276/100 209/277/100 207/278/100 205/279/100 203/280/100 201/281/100 199/282/100 197/283/100
f 188/219/95 186/217/95 250/233/95 252/284/95
f 190/221/96 188/219/96 252/284/96 254/228/96
f 172/203/87 170/201/87 234/239/87 236/285/87
f 184/215/93 182/213/93 246/240/93 248/232/93
f 178/209/90 176/207/90 240/237/90 242/230/90
f 168/199/85 166/197/85 230/245/85 232/238/85
f 162/193/82 160/191/82 224/242/82 226/234/82
f 174/205/88 172/203/88 236/285/88 238/236/88
f 156/187/79 154/185/79 218/244/79 220/286/79
f 146/177/74 144/175/74 208/251/74 210/246/74
f 158/189/80 156/187/80 220/286/80 222/241/80
f 140/171/71 138/169/71 202/248/71 204/287/71
f 152/183/77 150/181/77 214/249/77 216/243/77
f 142/173/72 140/171/72 204/287/72 206/250/72
f 130/162/98 192/225/98 256/229/98 195/288/98
f 194/289/101 195/290/101 196/253/101 193/252/101
f 198/291/102 194/289/102 193/252/102 197/283/102
f 200/292/103 198/291/103 197/283/103 199/282/103
f 202/293/104 200/292/104 199/282/104 201/281/104
f 204/294/105 202/293/105 201/281/105 203/280/105
f 206/295/106 204/294/106 203/280/106 205/279/106
f 208/296/107 206/295/107 205/279/107 207/278/107
f 210/297/108 208/296/108 207/278/108 209/277/108
f 212/298/109 210/297/109 209/277/109 211/276/109
f 214/299/110 212/298/110 211/276/110 213/275/110
f 216/300/111 214/299/111 213/275/111 215/274/111
f 218/301/112 216/300/112 215/274/112 217/273/112
f 220/302/113 218/301/113 217/273/113 219/272/113
f 222/303/114 220/302/114 219/272/114 221/271/114
f 224/304/115 222/303/115 221/271/115 223/270/115
f 226/305/116 224/304/116 223/270/116 225/269/116
f 228/306/117 226/305/117 225/269/117 227/268/117
f 230/307/118 228/306/118 227/268/118 229/267/118
f 232/308/119 230/307/119 229/267/119 231/266/119
f 234/309/120 232/308/120 231/266/120 233/265/120
f 236/310/121 234/309/121 233/265/121 235/264/121
f 238/311/122 236/310/122 235/264/122 237/263/122
f 240/312/123 238/311/123 237/263/123 239/262/123
f 242/313/124 240/312/124 239/262/124 241/261/124
f 244/314/125 242/313/125 241/261/125 243/260/125
f 246/315/126 244/314/126 243/260/126 245/259/126
f 248/316/127 246/315/127 245/259/127 247/258/127
f 250/317/128 248/316/128 247/258/128 249/257/128
f 252/318/129 250/317/129 249/257/129 251/256/129
f 254/319/130 252/318/130 251/256/130 253/255/130
f 256/320/131 254/319/131 253/255/131 255/254/131
f 195/290/132 256/320/132 255/254/132 196/253/132
f 132/163/67 130/162/67 195/288/67 194/227/67
o Cube
v -3.158783 0.014853 0.973534
v -3.158781 0.014853 -0.973534
v 3.158784 3.214853 -0.973533
v 3.158780 3.214853 0.973534
v -3.158783 3.214853 0.973533
v -3.158782 3.214853 -0.973534
v 2.743001 0.014853 -0.973534
v 2.743001 0.014853 0.973534
v 2.743002 3.214853 -0.973533
v 2.742999 3.214853 0.973534
v 3.158782 0.373098 -0.973534
v 2.743001 0.014853 -0.973534
v 2.743001 0.014853 0.973534
v 3.158782 0.373098 0.973534
v -2.964139 0.014853 -0.973534
v -2.964140 0.014853 0.973534
v -2.964139 3.214853 -0.973534
v -2.964141 3.214853 0.973533
v -2.073061 0.014853 -0.973534
v -2.073062 0.014853 0.973534
v -2.073061 3.214853 -0.973534
v -2.073063 3.214853 0.973534
v -3.158783 2.695648 0.973534
v -3.158782 2.695648 -0.973534
v 2.743002 2.695648 -0.973533
v 2.742999 2.695648 0.973534
v -2.964139 2.695648 -0.973534
v -2.964141 2.695648 0.973534
v -2.073063 2.695648 0.973534
v -2.073061 2.695648 -0.973534
v 2.743000 1.407931 0.973534
v -2.964140 1.407931 0.973534
v -2.073063 1.407931 0.973534
v -3.158783 1.407931 0.973534
v -3.158782 1.407931 -0.973534
v 2.743001 1.407931 -0.973534
v -2.964139 1.407931 -0.973534
v -2.073061 1.407931 -0.973534
v -2.073063 2.695648 0.773198
v -2.964141 2.695648 0.773197
v -2.964140 1.407931 0.773198
v -2.073063 1.407931 0.773198
v -2.964139 1.407931 -0.873904
v -2.964139 2.695648 -0.873904
v -2.073061 1.407931 -0.873904
v -2.073061 2.695648 -0.873904
vt 0.882875 0.744094
vt 0.882875 0.388202
vt 0.886844 0.388202
vt 0.886844 0.744094
vt 0.620072 0.523763
vt 0.626971 0.523763
vt 0.626971 0.747706
vt 0.620072 0.747706
vt 0.973424 0.966282
vt 0.973423 0.202079
vt 0.911108 0.105740
vt 0.911108 0.105740
vt 0.911108 0.480366
vt 0.911108 0.826658
vt 0.911108 0.966282
vt 0.055031 0.820331
vt 0.055031 0.958247
vt 0.025812 0.958247
vt 0.025812 0.820331
vt 0.693142 0.538725
vt 0.772314 0.538725
vt 0.772314 0.782605
vt 0.693142 0.782605
vt 0.055748 0.480366
vt 0.055748 0.105740
vt 0.026576 0.105740
vt 0.026576 0.480366
vt 0.911772 0.108235
vt 0.974188 0.203395
vt 0.974188 0.958247
vt 0.911772 0.958247
vt 0.911772 0.820331
vt 0.911772 0.478277
vt 0.911772 0.108235
vt 0.403028 0.523763
vt 0.417767 0.523763
vt 0.417767 0.747706
vt 0.403028 0.747706
vt 0.000000 0.065814
vt 1.000000 0.065814
vt 1.000000 0.065814
vt 0.000000 0.065814
vt 0.189299 0.480366
vt 0.189299 0.105740
vt 0.188797 0.820331
vt 0.188797 0.958247
vt 0.588485 0.523763
vt 0.588485 0.747706
vt 0.864703 0.744094
vt 0.864703 0.388202
vt 0.766489 0.744094
vt 0.766489 0.388202
vt 0.189299 0.826658
vt 0.189299 0.966282
vt 0.188797 0.478277
vt 0.055031 0.478277
vt 0.055031 0.478277
vt 0.055031 0.820331
vt 0.055748 0.826658
vt 0.055748 0.966282
vt 0.026576 0.826658
vt 0.026576 0.966282
vt 0.496780 0.538725
vt 0.496780 0.782605
vt 0.025812 0.478277
vt 0.055031 0.108235
vt 0.025812 0.108235
vt 0.284352 0.538725
vt 0.284352 0.782605
vt 0.188797 0.108235
vt 0.055748 0.480366
vt 0.189299 0.480366
vt 0.188797 0.478277
vt 0.188797 0.820331
vt 0.189299 0.826658
vt 0.055748 0.826658
vt 0.934215 0.149795
vt 0.934216 0.951238
vt 0.065785 0.951238
vt 0.065784 0.149795
vt 0.065784 0.048762
vt 0.934215 0.048761
vn 0.0000 -1.0000 -0.0000
vn 0.0000 1.0000 0.0000
vn -0.0000 0.0000 -1.0000
vn 0.0000 0.0000 1.0000
vn -1.0000 -0.0000 -0.0000
vn 1.0000 0.0000 0.0000
vn 0.6527 -0.7576 0.0000
usemtl Material
s off
f 271/321/133 272/322/133 257/323/133 258/324/133
f 273/325/134 262/326/134 261/327/134 274/328/134
f 259/329/135 267/330/135 268/331/135 263/332/135 292/333/135 281/334/135 265/335/135
f 284/336/136 274/337/136 261/338/136 279/339/136
f 279/340/137 261/341/137 262/342/137 280/343/137
f 293/344/135 271/345/135 258/346/135 291/347/135
f 269/348/136 270/349/136 260/350/136 266/351/136 282/352/136 287/353/136 264/354/136
f 259/355/134 265/356/134 266/357/134 260/358/134
f 268/359/136 269/360/136 264/361/136 263/362/136
f 294/363/135 275/364/135 271/345/135 293/344/135
f 285/365/136 278/366/136 274/337/136 284/336/136
f 277/367/134 273/325/134 274/328/134 278/368/134
f 275/369/133 276/370/133 272/322/133 271/321/133
f 263/371/133 264/372/133 276/370/133 275/369/133
f 265/356/134 277/367/134 278/368/134 266/357/134
f 282/352/136 266/351/136 278/366/136 285/365/136
f 292/333/135 263/332/135 275/364/135 294/363/135
f 265/335/135 281/334/135 286/373/135 277/374/135
f 287/353/136 282/352/136 285/365/136 289/375/136
f 284/336/138 288/376/138 297/377/138 296/378/138
f 277/374/135 286/373/135 283/379/135 273/380/135
f 273/380/135 283/379/135 280/381/135 262/382/135
f 290/383/137 279/340/137 280/343/137 291/384/137
f 288/376/136 284/336/136 279/339/136 290/385/136
f 272/386/136 288/376/136 290/385/136 257/387/136
f 257/388/137 290/383/137 291/384/137 258/389/137
f 276/390/136 289/375/136 288/376/136 272/386/136
f 264/354/136 287/353/136 289/375/136 276/390/136
f 281/334/135 292/333/135 294/363/135 286/373/135
f 294/363/134 293/344/134 299/391/134 301/392/134
f 283/379/135 293/344/135 291/347/135 280/381/135
f 298/393/136 295/394/136 296/378/136 297/377/136
f 289/375/137 285/365/137 295/394/137 298/393/137
f 288/376/134 289/375/134 298/393/134 297/377/134
f 285/365/133 284/336/133 296/378/133 295/394/133
f 302/395/135 301/392/135 299/391/135 300/396/135
f 293/344/138 283/379/138 300/396/138 299/391/138
f 283/379/133 286/373/133 302/395/133 300/396/133
f 286/373/137 294/363/137 301/392/137 302/395/137
usemtl Material.001
f 267/397/138 259/398/138 260/399/138 270/400/138
f 267/397/139 270/400/139 269/401/139 268/402/139
